<svg width="257" height="205" viewBox="0 0 257 205" fill="none" xmlns="http://www.w3.org/2000/svg">
<path fill-rule="evenodd" clip-rule="evenodd" d="M27.5278 24.8331C27.7787 25.0739 27.7873 25.4728 27.547 25.7242C27.1652 26.1237 26.7572 26.5193 26.327 26.9117C26.0702 27.1461 25.6724 27.1274 25.4385 26.8701C25.2046 26.6127 25.2232 26.2141 25.4801 25.9797C25.8921 25.6038 26.2792 25.2283 26.6385 24.8524C26.8788 24.601 27.2769 24.5924 27.5278 24.8331ZM23.8386 28.191C24.0501 28.4671 23.9982 28.8628 23.7227 29.0747C22.8615 29.7372 21.952 30.3979 21.0136 31.06C20.7295 31.2604 20.3371 31.1921 20.1371 30.9075C19.9372 30.6229 20.0053 30.2297 20.2893 30.0293C21.2191 29.3733 22.1137 28.7233 22.9566 28.0749C23.2322 27.8629 23.627 27.9149 23.8386 28.191ZM18.4325 32.0839C18.6283 32.3714 18.5544 32.7636 18.2674 32.9597C18.0735 33.0923 17.8792 33.225 17.6846 33.3579C16.9665 33.8484 16.2441 34.3418 15.522 34.8411C15.2361 35.0388 14.8444 34.9669 14.6471 34.6804C14.4498 34.3939 14.5216 34.0014 14.8075 33.8037C15.5328 33.3021 16.2591 32.806 16.9776 32.3153C17.1718 32.1826 17.3655 32.0504 17.5584 31.9185C17.8454 31.7223 18.2367 31.7964 18.4325 32.0839ZM12.9531 35.8756C13.1572 36.1573 13.0948 36.5514 12.8137 36.7559C11.9144 37.4102 11.0326 38.0748 10.1819 38.7532C9.91007 38.9699 9.51437 38.9249 9.29805 38.6525C9.08174 38.3801 9.12674 37.9836 9.39855 37.7669C10.2671 37.0743 11.1642 36.3982 12.0746 35.7359C12.3557 35.5314 12.749 35.594 12.9531 35.8756ZM7.71864 39.9939C7.95336 40.2505 7.93604 40.6491 7.67995 40.8843C6.85698 41.6402 6.08738 42.4131 5.38696 43.2067C5.15683 43.4675 4.75932 43.4919 4.4991 43.2613C4.23887 43.0308 4.21447 42.6325 4.44459 42.3717C5.17902 41.5395 5.98049 40.7352 6.82995 39.9551C7.08604 39.7199 7.48392 39.7373 7.71864 39.9939ZM3.23675 44.9095C3.52929 45.0972 3.61455 45.487 3.4272 45.7802C2.83822 46.7016 2.35425 47.6495 1.99414 48.6287C1.87402 48.9553 1.51241 49.1225 1.18645 49.0022C0.860495 48.8818 0.693628 48.5195 0.813744 48.1929C1.20927 47.1174 1.73648 46.0881 2.36785 45.1003C2.5552 44.8072 2.94422 44.7218 3.23675 44.9095ZM0.727722 51.024C1.07382 51.0539 1.33018 51.3593 1.30032 51.7061C1.21339 52.7156 1.25804 53.766 1.45574 54.8631C1.51747 55.2056 1.29038 55.5334 0.948526 55.5953C0.606671 55.6571 0.279501 55.4296 0.217772 55.0871C0.000719227 53.8826 -0.049692 52.7204 0.0469853 51.5977C0.0768478 51.2509 0.381624 50.9941 0.727722 51.024ZM18.5124 54.3263C18.5735 54.6689 18.3459 54.9963 18.0039 55.0576C17.2888 55.1856 16.6736 55.6806 16.3242 56.8811C16.2269 57.2152 15.8777 57.4071 15.5442 57.3096C15.2107 57.2122 15.0192 56.8623 15.1165 56.5281C15.5652 54.9866 16.4869 54.0488 17.7825 53.8167C18.1245 53.7555 18.4513 53.9836 18.5124 54.3263ZM20.528 54.8772C20.6882 54.5683 21.0679 54.448 21.3761 54.6085C21.865 54.8629 22.3637 55.1699 22.8667 55.5224C23.4274 55.9153 23.8255 56.4152 24.0595 56.9935C24.19 57.3161 24.0348 57.6836 23.7129 57.8143C23.3909 57.9451 23.0241 57.7896 22.8936 57.467C22.7557 57.126 22.5178 56.8161 22.1457 56.5553C21.6809 56.2296 21.2293 55.9525 20.7962 55.727C20.4879 55.5666 20.3679 55.1861 20.528 54.8772ZM1.54867 57.5842C1.86968 57.4512 2.23754 57.6041 2.37031 57.9258C2.56823 58.4053 2.79459 58.8936 3.05097 59.3912C3.29187 59.8588 3.53923 60.2985 3.79219 60.7116C3.97386 61.0083 3.88109 61.3964 3.58499 61.5784C3.28889 61.7604 2.90159 61.6675 2.71993 61.3708C2.45007 60.9301 2.1876 60.4633 1.93317 59.9695C1.66133 59.4419 1.41992 58.9213 1.20783 58.4075C1.07506 58.0859 1.22766 57.7173 1.54867 57.5842ZM15.4043 59.3937C15.7513 59.3768 16.0462 59.645 16.0631 59.9926C16.108 60.9186 16.2344 61.9847 16.4552 63.2021C16.5173 63.5446 16.2906 63.8727 15.9489 63.9349C15.6071 63.9972 15.2796 63.77 15.2175 63.4275C14.9889 62.1676 14.8547 61.0456 14.8066 60.0538C14.7897 59.7062 15.0573 59.4106 15.4043 59.3937ZM23.4841 59.6728C23.8028 59.8113 23.9491 60.1825 23.8108 60.5018C23.4058 61.4375 22.7714 62.3791 21.975 63.2543C21.741 63.5115 21.3431 63.5299 21.0864 63.2953C20.8297 63.0608 20.8114 62.6622 21.0455 62.405C21.7676 61.6114 22.3172 60.7845 22.6567 60.0002C22.795 59.6809 23.1654 59.5343 23.4841 59.6728ZM4.68215 63.0662C4.93851 62.8313 5.33637 62.8491 5.57079 63.106C6.29636 63.9011 7.04816 64.5295 7.81136 65.015C8.10464 65.2015 8.19146 65.591 8.00528 65.8848C7.81911 66.1787 7.43043 66.2657 7.13715 66.0791C6.27392 65.5301 5.43775 64.8281 4.64242 63.9566C4.408 63.6997 4.42578 63.3011 4.68215 63.0662ZM19.6826 64.5048C19.878 64.7926 19.8035 65.1847 19.5162 65.3804C18.8078 65.8631 18.0413 66.2928 17.2324 66.6459C17.4748 67.5652 17.7573 68.5445 18.0826 69.5863C18.1863 69.9185 18.0017 70.272 17.6701 70.376C17.3386 70.4799 16.9857 70.2949 16.882 69.9627C16.5236 68.8147 16.2152 67.7379 15.9539 66.7296C15.8996 66.6714 15.8556 66.6019 15.8257 66.5229C15.7026 66.1973 15.8662 65.8335 16.1911 65.7102C17.1218 65.3568 18.0044 64.8861 18.8088 64.3381C19.0961 64.1423 19.4873 64.217 19.6826 64.5048ZM9.7014 66.6201C9.78416 66.2821 10.1248 66.0753 10.4621 66.1582C11.4232 66.3944 12.3911 66.4553 13.3428 66.3738C13.6889 66.3442 13.9935 66.6013 14.0231 66.9482C14.0526 67.295 13.796 67.6001 13.4499 67.6298C12.3723 67.722 11.2664 67.6537 10.1624 67.3824C9.82505 67.2995 9.61864 66.9582 9.7014 66.6201ZM18.3282 72.3492C18.6558 72.2335 19.015 72.4057 19.1305 72.734C19.479 73.7242 19.8603 74.7611 20.276 75.8459C20.4005 76.1709 20.2385 76.5355 19.9142 76.6602C19.5899 76.785 19.2261 76.6227 19.1015 76.2977C18.682 75.2028 18.2967 74.1551 17.9441 73.1532C17.8286 72.8249 18.0005 72.465 18.3282 72.3492ZM20.6754 78.5797C20.9969 78.4477 21.3642 78.6019 21.4958 78.924C21.8988 79.9099 22.327 80.9306 22.7815 81.9867C22.9191 82.3064 22.772 82.6772 22.453 82.815C22.134 82.9529 21.7639 82.8055 21.6263 82.4858C21.1689 81.4229 20.7377 80.3951 20.3317 79.4018C20.2 79.0796 20.3539 78.7116 20.6754 78.5797ZM23.2884 84.7139C23.6052 84.5712 23.9776 84.7127 24.1201 85.0302C24.56 86.0103 25.0207 87.0181 25.5026 88.0541C25.6493 88.3696 25.5131 88.7446 25.1982 88.8916C24.8833 89.0387 24.5091 88.9021 24.3624 88.5866C23.8782 87.5457 23.4152 86.5328 22.9728 85.5473C22.8303 85.2298 22.9716 84.8567 23.2884 84.7139ZM26.0837 90.7654C26.3968 90.6147 26.7726 90.7468 26.9231 91.0605C27.1635 91.5617 27.4085 92.069 27.6582 92.5825C27.8103 92.8954 27.6805 93.2727 27.3683 93.4251C27.056 93.5776 26.6795 93.4475 26.5273 93.1346C26.2766 92.6192 26.0306 92.1098 25.7892 91.6065C25.6388 91.2927 25.7706 90.9162 26.0837 90.7654Z" fill="#FFBA55"/>
<rect x="27.9268" width="201.392" height="159.013" rx="60" fill="#FFEACB"/>
<path d="M27.9268 19.0168C27.9268 8.5141 36.4409 0 46.9435 0H210.302C220.805 0 229.319 8.5141 229.319 19.0168H27.9268Z" fill="#FED085"/>
<ellipse cx="44.188" cy="9.91298" rx="2.91873" ry="2.83229" fill="white"/>
<ellipse cx="44.188" cy="9.91298" rx="2.91873" ry="2.83229" fill="white"/>
<ellipse cx="53.9866" cy="9.91295" rx="2.91873" ry="2.83229" fill="white"/>
<ellipse cx="53.9866" cy="9.91295" rx="2.91873" ry="2.83229" fill="white"/>
<ellipse cx="63.7854" cy="9.91295" rx="2.91872" ry="2.83229" fill="white"/>
<ellipse cx="63.7854" cy="9.91295" rx="2.91872" ry="2.83229" fill="white"/>
<rect x="116.948" y="27.7159" width="102.781" height="60.6919" rx="30.3459" fill="#FFE2B7"/>
<ellipse cx="193.147" cy="57.3538" rx="19.0759" ry="18.511" fill="#EECCA9"/>
<ellipse cx="193.147" cy="57.3538" rx="19.0759" ry="18.511" fill="#FDD79F"/>
<path d="M181.613 72.0976C183.765 73.6827 186.239 74.8063 188.872 75.3938C191.504 75.9814 194.236 76.0197 196.885 75.5061C199.534 74.9924 202.04 73.9387 204.238 72.4145C206.436 70.8903 208.276 68.9305 209.634 66.6648C210.993 64.399 211.841 61.8791 212.121 59.2717C212.4 56.6643 212.106 54.029 211.258 51.5401C210.41 49.0513 209.026 46.7657 207.199 44.8347C205.372 42.9036 203.143 41.3712 200.66 40.3388L193.147 57.3538L181.613 72.0976Z" fill="#FF546C"/>
<path d="M212.223 57.3538C212.223 54.3843 211.487 51.4584 210.077 48.823C208.666 46.1877 206.624 43.9202 204.12 42.2121C201.617 40.5039 198.727 39.4052 195.695 39.0086C192.662 38.612 189.576 38.9293 186.696 39.9335L193.147 57.3538H212.223Z" fill="#FFFFFD"/>
<rect x="126.955" y="40.6635" width="6.25442" height="6.06919" rx="3.03459" fill="#FDD79F"/>
<rect x="136.228" y="42.2422" width="21.9622" height="1.57865" rx="0.789325" fill="#FDD79F"/>
<rect x="126.955" y="55.0273" width="6.25442" height="6.06919" rx="3.03459" fill="#FF546C"/>
<rect x="138.838" y="57.0504" width="28.1448" height="2.02306" rx="1.01153" fill="#FDD79F"/>
<rect x="126.955" y="69.391" width="6.25442" height="6.06919" rx="3.03459" fill="#FFFFFD"/>
<rect x="138.838" y="71.4141" width="28.1448" height="2.02306" rx="1.01153" fill="#FDD79F"/>
<rect x="37.5166" y="27.7159" width="70.4664" height="60.6919" rx="30.3459" fill="#FFE2B7"/>
<rect x="44.6052" y="34.3921" width="5.00352" height="34.999" rx="2.50176" fill="#EECCA9"/>
<rect x="44.6052" y="34.3921" width="5.00352" height="34.999" rx="2.50176" fill="#FDD79F"/>
<rect x="44.6052" y="44.912" width="5.00352" height="24.479" rx="2.50176" fill="#7DB5C4"/>
<rect x="44.6052" y="44.912" width="5.00352" height="24.479" rx="2.50176" fill="#7DB5C4"/>
<rect x="54.8208" y="34.3921" width="5.00352" height="34.999" rx="2.50176" fill="#EECCA9"/>
<rect x="54.8208" y="34.3921" width="5.00352" height="34.999" rx="2.50176" fill="#FDD79F"/>
<rect x="54.8208" y="55.0273" width="5.00352" height="14.3637" rx="2.50176" fill="#7DB5C4"/>
<rect x="54.8208" y="55.0273" width="5.00352" height="14.3637" rx="2.50176" fill="#7DB5C4"/>
<rect x="65.0364" y="34.3921" width="5.00352" height="34.999" rx="2.50176" fill="#EECCA9"/>
<rect x="65.0364" y="34.3921" width="5.00352" height="34.999" rx="2.50176" fill="#FDD79F"/>
<rect x="65.0364" y="41.0682" width="5.00352" height="28.3229" rx="2.50176" fill="#7DB5C4"/>
<rect x="65.0364" y="41.0682" width="5.00352" height="28.3229" rx="2.50176" fill="#7DB5C4"/>
<rect x="75.2517" y="34.3921" width="5.00354" height="34.999" rx="2.50177" fill="#EECCA9"/>
<rect x="75.2517" y="34.3921" width="5.00354" height="34.999" rx="2.50177" fill="#FDD79F"/>
<rect x="75.2517" y="48.9581" width="5.00354" height="20.4329" rx="2.50177" fill="#7DB5C4"/>
<rect x="75.2517" y="48.9581" width="5.00354" height="20.4329" rx="2.50177" fill="#7DB5C4"/>
<rect x="85.467" y="34.3921" width="5.00353" height="34.999" rx="2.50176" fill="#EECCA9"/>
<rect x="85.467" y="34.3921" width="5.00353" height="34.999" rx="2.50176" fill="#FDD79F"/>
<rect x="85.467" y="42.8889" width="5.00353" height="26.5021" rx="2.50176" fill="#7DB5C4"/>
<rect x="85.467" y="42.8889" width="5.00353" height="26.5021" rx="2.50176" fill="#7DB5C4"/>
<rect x="95.6829" y="34.3921" width="5.00354" height="34.999" rx="2.50177" fill="#EECCA9"/>
<rect x="95.6829" y="34.3921" width="5.00354" height="34.999" rx="2.50177" fill="#FDD79F"/>
<rect x="95.6829" y="59.2757" width="5.00354" height="10.1153" rx="2.50177" fill="#7DB5C4"/>
<rect x="95.6829" y="59.2757" width="5.00354" height="10.1153" rx="2.50177" fill="#7DB5C4"/>
<rect x="44.6052" y="73.8418" width="28.1448" height="2.02306" rx="1.01153" fill="#FDD79F"/>
<rect x="44.6052" y="78.2925" width="43.3639" height="2.02306" rx="1.01153" fill="#FDD79F"/>
<rect x="37.5166" y="98.9277" width="81.9328" height="49.565" rx="24.7825" fill="#FFE2B7"/>
<path d="M75.2123 110.06L67.1945 114.598C64.2403 116.271 65.4271 120.777 68.8219 120.777H104.708C106.579 120.777 107.456 118.463 106.056 117.223L104.4 115.755C101.978 113.609 98.578 112.944 95.5231 114.011C92.2014 115.171 88.5002 114.27 86.0891 111.708C83.2761 108.718 78.7846 108.038 75.2123 110.06Z" fill="#FBC679"/>
<ellipse cx="93.7022" cy="106.919" rx="2.81449" ry="2.73113" fill="#FBC679"/>
<rect x="48.3577" y="126.037" width="28.1448" height="2.02306" rx="1.01153" fill="#FDD79F"/>
<rect x="48.3577" y="130.488" width="43.3639" height="2.02306" rx="1.01153" fill="#FDD79F"/>
<rect x="48.3577" y="134.938" width="39.8197" height="2.02306" rx="1.01153" fill="#FDD79F"/>
<rect x="48.3577" y="139.389" width="53.7879" height="2.02306" rx="1.01153" fill="#FDD79F"/>
<rect x="128.414" y="98.9277" width="40.0282" height="18.6122" rx="9.3061" fill="#FFE2B7"/>
<ellipse cx="136.858" cy="107.728" rx="3.6484" ry="3.54036" fill="white"/>
<rect x="144.05" y="104.997" width="12.0919" height="2.02306" rx="1.01153" fill="#FDD79F"/>
<rect x="144.05" y="109.448" width="18.5548" height="2.02306" rx="1.01153" fill="#FDD79F"/>
<rect x="174.071" y="114.708" width="45.6572" height="33.7851" rx="16.8926" fill="#FFE2B7"/>
<path fill-rule="evenodd" clip-rule="evenodd" d="M192.761 133.178C190.92 132.986 188.834 134.014 187.561 137.271C186.87 139.037 186.029 140.171 185.056 140.763C184.053 141.374 183.008 141.35 182.073 141.007C181.16 140.672 180.334 140.032 179.669 139.363C178.998 138.69 178.452 137.951 178.105 137.365C177.923 137.059 178.023 136.663 178.329 136.481C178.634 136.299 179.029 136.4 179.211 136.706C179.507 137.204 179.988 137.858 180.58 138.452C181.176 139.051 181.846 139.551 182.515 139.796C183.163 140.033 183.786 140.028 184.388 139.661C185.021 139.276 185.722 138.438 186.363 136.8C187.793 133.143 190.342 131.629 192.894 131.895C195.378 132.154 197.641 134.085 198.578 136.826C199.012 138.096 199.523 138.793 200.013 139.144C200.477 139.476 200.991 139.547 201.584 139.403C202.2 139.252 202.886 138.869 203.606 138.307C204.319 137.75 205.03 137.045 205.695 136.297C207.748 133.987 211.573 133.665 213.592 136.216L215.854 139.075C216.075 139.354 216.029 139.759 215.75 139.981C215.472 140.202 215.067 140.155 214.846 139.876L212.583 137.017C211.158 135.216 208.287 135.32 206.656 137.155C205.96 137.937 205.192 138.703 204.397 139.324C203.608 139.941 202.755 140.444 201.888 140.656C200.998 140.873 200.085 140.781 199.264 140.193C198.47 139.624 197.839 138.643 197.361 137.244C196.56 134.902 194.671 133.377 192.761 133.178Z" fill="#FDD79F"/>
<path fill-rule="evenodd" clip-rule="evenodd" d="M192.788 133.178C190.955 132.985 188.871 134.02 187.597 137.316C187.469 137.648 187.096 137.813 186.765 137.684C186.433 137.556 186.269 137.182 186.397 136.85C187.823 133.16 190.368 131.626 192.923 131.895C195.408 132.157 197.666 134.111 198.601 136.876C199.035 138.16 199.546 138.866 200.035 139.221C200.498 139.556 201.009 139.628 201.599 139.482C202.214 139.33 202.898 138.944 203.617 138.375C204.33 137.812 205.039 137.1 205.703 136.344C207.755 134.01 211.58 133.683 213.597 136.262L215.857 139.151C216.076 139.431 216.027 139.836 215.747 140.056C215.468 140.276 215.063 140.227 214.844 139.946L212.584 137.057C211.161 135.238 208.298 135.343 206.669 137.196C205.975 137.987 205.208 138.76 204.414 139.388C203.626 140.011 202.774 140.52 201.907 140.734C201.016 140.954 200.101 140.861 199.281 140.266C198.488 139.691 197.859 138.701 197.382 137.29C196.58 134.918 194.691 133.378 192.788 133.178Z" fill="#7DB5C4"/>
<rect x="180.534" y="119.563" width="18.5547" height="2.02306" rx="1.01153" fill="#FDD79F"/>
<rect x="180.534" y="124.014" width="10.841" height="2.02306" rx="1.01153" fill="#FDD79F"/>
<path d="M83.174 143.941C80.8807 134.837 104.856 132.713 110.981 138.332C116.382 151.243 122.491 151.362 124.87 150.516C127.717 152.703 132.157 158.229 135.795 161.06C136.841 161.874 137.587 163.08 137.587 164.405V166.496C137.587 167.69 138.211 168.798 139.232 169.418C139.792 169.757 140.245 170.246 140.509 170.844C142.63 175.641 146.401 187.202 144.259 192.494L129.248 191.584L122.994 179.85L116.114 199.879L65.6616 201.092C66.1758 199.346 62.9378 198.234 64.7235 192.494C65.8341 188.925 71.1843 181.597 73.1669 177.625C77.3072 169.33 82.757 159.215 86.0927 155.978C82.5902 151.77 85.4673 153.045 83.174 143.941Z" fill="#5C62A9"/>
<path d="M83.174 143.941C80.8807 134.837 104.856 132.713 110.981 138.332C116.382 151.243 122.491 151.362 124.87 150.516C127.717 152.703 132.157 158.229 135.795 161.06C136.841 161.874 137.587 163.08 137.587 164.405V166.496C137.587 167.69 138.211 168.798 139.232 169.418C139.792 169.757 140.245 170.246 140.509 170.844C142.63 175.641 146.401 187.202 144.259 192.494L129.248 191.584L122.994 179.85L116.114 199.879L65.6616 201.092C66.1758 199.346 62.9378 198.234 64.7235 192.494C65.8341 188.925 71.1843 181.597 73.1669 177.625C77.3072 169.33 82.757 159.215 86.0927 155.978C82.5902 151.77 85.4673 153.045 83.174 143.941Z" fill="url(#paint0_linear)"/>
<mask id="mask0" mask-type="alpha" maskUnits="userSpaceOnUse" x="65" y="133" width="82" height="69">
<path d="M82.3398 140.603C80.0465 131.499 104.856 132.713 110.981 138.332C116.382 151.243 122.49 151.362 124.87 150.516C127.394 152.455 131.171 157.02 134.531 160.003C136.271 161.547 137.544 163.725 137.477 166.051C137.415 168.208 138.499 170.237 140.327 171.384L140.923 171.758C144.467 181.671 144.571 185.515 146.031 191.584L129.248 191.584L122.993 179.85L116.114 199.879L65.4529 201.295C66.2868 198.462 67.9963 187.983 73.1667 177.625C77.3069 169.33 82.7568 159.215 86.0924 155.978C82.59 151.77 84.6331 149.707 82.3398 140.603Z" fill="#FFBA55"/>
</mask>
<g mask="url(#mask0)">
<path d="M124.245 174.793L122.577 181.064L124.245 187.538H145.405L144.571 175.602H142.382C143.216 184.2 135.502 185.717 135.502 185.717C130.585 185.283 126.213 182.137 124.866 177.388C124.599 176.446 124.377 175.551 124.245 174.793Z" fill="#3A4187"/>
</g>
<path d="M126.642 162.856C124.366 159.579 123.098 153.517 120.909 151.831L125.912 149.201L131.124 153.55L132.167 162.351C131.194 162.182 127.955 160.833 128.622 163.666C129.456 167.206 129.352 166.195 128.622 168.42C128.039 170.2 128.032 178.299 129.248 182.177C127.789 179.648 127.267 175.399 127.267 171.556C127.267 167.486 129.873 167.51 126.642 162.856Z" fill="#3A4187"/>
<mask id="mask1" mask-type="alpha" maskUnits="userSpaceOnUse" x="64" y="135" width="81" height="65">
<path d="M83.3825 144.042C81.0892 134.938 104.856 132.713 110.981 138.332C116.382 151.243 122.491 152.778 124.87 151.932C128.206 154.495 135.252 160.591 136.753 164.475C138.255 168.359 137.379 170.679 136.753 171.353C139.422 176.37 143.008 189.763 144.467 195.832L132.584 197.451L122.89 179.951L116.114 199.879L65.1405 198.867C61.8048 193.607 68.2052 187.578 73.3755 177.22C77.5158 168.926 82.3401 159.822 85.6758 156.585C82.1733 152.377 85.6758 153.146 83.3825 144.042Z" fill="#FFBA55"/>
</mask>
<g mask="url(#mask1)">
<path d="M89.4283 145.458C84.258 143.516 86.0579 139.928 86.6138 137.77L81.0891 133.522L77.5449 141.817L84.3205 157.596C86.1969 155.776 89.0947 152.863 92.764 151.73C97.3505 150.313 100.478 153.55 105.898 158.608C110.235 162.654 114.237 162.317 115.697 161.643C114.863 161.845 108.087 159.62 105.898 156.787C102.146 151.932 95.8912 147.886 89.4283 145.458Z" fill="#3A4187"/>
<path d="M90.054 191.989C86.0929 197.249 71.3603 195.428 62.5346 194.214L58.782 198.867L114.446 201.902V198.867C112.639 197.99 111.069 195.832 107.566 194.214C106.838 193.877 105.931 192.674 104.944 190.929C101.592 185.005 94.1486 186.551 90.054 191.989Z" fill="#3A4187"/>
<path d="M113.404 178.636C110.235 171.191 103.918 153.146 96.8296 156.686C96.8296 156.686 99.2967 173.444 104.856 179.648L120.492 191.989L123.411 183.492C121.465 184.436 116.573 186.081 113.404 178.636Z" fill="#3A4187"/>
</g>
<path d="M108.817 196.439C101.646 196.439 92.7295 172.386 90.9922 164.677C92.4515 150.145 103.814 156.472 106.315 166.195C110.068 175.445 114.321 184.562 116.323 185.894C118.324 187.226 138.734 187.185 147.282 187.74L140.089 196.439H108.817Z" fill="#5B62A9"/>
<path d="M96.4051 188.481C96.2693 187.976 96.2376 187.408 96.0999 186.526L96.4051 188.481C96.7053 189.597 97.5143 190.403 101.103 193.607C104.916 197.011 112.987 193.405 140.923 195.428L139.255 199.879H98.1847L96.4051 188.481Z" fill="#3A4187"/>
<path d="M99.8521 138.276C104.07 138.276 110.305 141.275 114.146 143.319C119.65 148.912 126.973 158.473 112.225 151.979C93.7917 143.86 85.0667 138.276 99.8521 138.276Z" fill="#141D78"/>
<mask id="mask2" mask-type="alpha" maskUnits="userSpaceOnUse" x="90" y="135" width="32" height="24">
<path d="M95.8914 135.343C100.471 135.343 109.443 139.726 113.612 142.019C119.589 148.29 128.95 165.125 113.612 156.585C106.732 152.754 79.8384 135.343 95.8914 135.343Z" fill="#E0450F"/>
</mask>
<g mask="url(#mask2)">
<path d="M112.986 147.279C109.651 151.123 96.7944 143.57 90.4705 140.198L107.357 155.169C111.388 152.606 115.672 144.184 112.986 147.279Z" fill="black"/>
</g>
<path d="M114.863 183.896C115.28 180.491 116.281 172.284 116.948 166.7C117.468 162.346 113.849 157.897 111.006 155.371C116.196 159.623 120.767 157.747 122.46 155.927C122.681 155.66 122.621 155.739 122.681 155.675C122.613 155.757 122.54 155.842 122.46 155.927C122.003 156.48 121.228 157.582 120.596 159.013C119.834 160.739 121.274 169.81 121.84 173.151C121.979 173.968 121.955 174.799 121.755 175.604C121.14 178.085 119.728 183.734 118.928 186.526C117.851 186.358 117.302 186.101 116.635 186.021C115.968 185.94 115.176 184.571 114.863 183.896Z" fill="white"/>
<path d="M114.863 183.896C115.28 180.491 116.281 172.284 116.948 166.7C117.468 162.346 113.849 157.897 111.006 155.371C116.196 159.623 120.767 157.747 122.46 155.927C122.681 155.66 122.621 155.739 122.681 155.675C122.613 155.757 122.54 155.842 122.46 155.927C122.003 156.48 121.228 157.582 120.596 159.013C119.834 160.739 121.274 169.81 121.84 173.151C121.979 173.968 121.955 174.799 121.755 175.604C121.14 178.085 119.728 183.734 118.928 186.526C117.851 186.358 117.302 186.101 116.635 186.021C115.968 185.94 115.176 184.571 114.863 183.896Z" fill="url(#paint1_linear)"/>
<path d="M111.11 195.934H107.775L106.628 198.766H110.068L111.11 195.934Z" fill="white"/>
<path d="M111.11 195.934H107.775L106.628 198.766H110.068L111.11 195.934Z" fill="url(#paint2_linear)"/>
<path d="M109.13 153.753L114.272 144.726L126.364 149.985L123.549 154.537C118.379 161.578 112.049 156.686 109.13 153.753Z" fill="#FFC2A0"/>
<mask id="mask3" mask-type="alpha" maskUnits="userSpaceOnUse" x="108" y="144" width="19" height="15">
<path d="M108.351 154.574L114.33 144.691L126.498 149.989L123.665 154.574C118.463 161.665 111.288 157.529 108.351 154.574Z" fill="#FFA188"/>
</mask>
<g mask="url(#mask3)">
<path d="M120.368 153.171C116.463 152.792 113.372 147.751 112.315 145.278L123.947 148.199C124.381 150.014 124.272 153.55 120.368 153.171Z" fill="#F29386"/>
</g>
<path d="M106.263 141.034C103.946 136.523 108.538 134.644 111.566 137.817C106.105 106.059 127.766 114.727 130.194 120.553C138.527 140.55 137.776 144.345 129.379 149.439C121.554 154.185 115.648 148.861 113.312 145.108C111.928 145.63 108.579 145.546 106.263 141.034Z" fill="#FFC2A0"/>
<mask id="mask4" mask-type="alpha" maskUnits="userSpaceOnUse" x="105" y="115" width="31" height="36">
<path d="M106.263 141.034C103.946 136.523 108.538 134.644 111.566 137.817C106.105 106.059 128.017 115.652 130.426 121.486C133.498 128.927 140.107 142.811 130.915 148.388C123.09 153.134 115.648 148.861 113.312 145.108C111.928 145.63 108.579 145.546 106.263 141.034Z" fill="#CCCCCC"/>
</mask>
<g mask="url(#mask4)">
<path d="M116.725 124.071C112.818 126.25 111.525 134.065 111.367 137.699L109.179 132.585L112.515 119.825L125.453 115.675C127.682 117.226 131.971 120.716 131.299 122.269C130.46 124.209 121.609 121.347 116.725 124.071Z" fill="#F29386"/>
<ellipse rx="2.90903" ry="1.62422" transform="matrix(0.938033 -0.345502 0.364393 0.931595 133.492 133.959)" fill="#F67E6D"/>
<ellipse rx="2.90903" ry="1.62422" transform="matrix(0.938033 -0.345502 0.364393 0.931595 118.818 139.042)" fill="#F67E6D"/>
</g>
<path d="M112.912 147.365C110.432 147.714 107.023 146.131 103.376 139.564C98.8156 131.357 96.3697 128.069 100.781 121.254C104.969 114.785 106.042 108.308 109.254 107.512C110.491 107.206 111.266 107.683 111.583 108.441C113.754 103.929 124.545 98.8697 127.644 108.182C131.712 105.719 135.856 111.062 136.404 112.416C136.551 112.781 136.668 113.141 136.752 113.497C138.153 119.446 129.249 122.174 123.067 121.227C119.173 120.63 117.741 119.464 116.172 121.088C110.347 127.118 110.903 132.742 111.668 138.121C110.26 137.145 107.932 135.381 106.194 137.262C105.277 138.254 105.541 141.115 109.283 144.334C109.744 144.73 111.608 145.763 113.342 145.096C114.297 146.385 112.912 147.365 112.912 147.365Z" fill="#5E1212"/>
<mask id="mask5" mask-type="alpha" maskUnits="userSpaceOnUse" x="98" y="102" width="39" height="46">
<path d="M112.912 147.365C110.432 147.714 107.023 146.131 103.376 139.564C98.8156 131.357 96.3697 128.069 100.781 121.254C104.969 114.785 106.042 108.308 109.254 107.512C110.491 107.206 111.266 107.683 111.583 108.441C113.754 103.929 124.545 98.8697 127.644 108.182C131.712 105.719 135.856 111.062 136.404 112.416C136.551 112.781 136.668 113.141 136.752 113.497C138.153 119.446 129.249 122.174 123.067 121.227C119.173 120.63 117.741 119.464 116.172 121.088C110.347 127.118 110.903 132.742 111.668 138.121C110.26 137.145 107.932 135.381 106.194 137.262C105.277 138.254 105.541 141.115 109.283 144.334C109.744 144.73 111.608 145.764 113.342 145.096C114.297 146.385 112.912 147.365 112.912 147.365Z" fill="#5E1212"/>
</mask>
<g mask="url(#mask5)">
<path d="M103.813 135.444C105.648 141.594 111.249 144.885 113.82 145.762V148.695H110.485C105.655 145.222 95.9117 138.195 95.5782 137.872C95.1612 137.467 89.7407 122.496 89.7407 121.08C89.7407 119.947 96.3426 109.212 99.6435 103.985L128.727 101.052C129.005 102.502 128.268 105.118 123.098 103.985C116.635 102.569 113.82 115.719 110.485 111.774C109.307 110.382 106.002 114.708 104.543 118.45C101.911 125.2 101.52 127.756 103.813 135.444Z" fill="#7E1B1B"/>
</g>
<ellipse rx="0.935501" ry="1.52184" transform="matrix(0.95302 -0.302908 0.319807 0.947483 121.425 133.593)" fill="black"/>
<path d="M116.8 131.407C116.119 128.296 119.003 126.068 121.844 128.354" stroke="black" stroke-width="3" stroke-linecap="round"/>
<path d="M125.923 129.719C126.999 128.947 129.513 127.685 130.964 128.82" stroke="black" stroke-width="3" stroke-linecap="round"/>
<ellipse rx="0.936067" ry="1.52091" transform="matrix(0.963044 -0.269346 0.284722 0.95861 128.585 132.113)" fill="black"/>
<path d="M126.217 133.463C127.001 134.299 128.761 136.191 129.521 137.065C130.281 137.94 128.924 139.575 128.151 140.282" stroke="#E17C6E" stroke-width="2" stroke-linecap="round"/>
<path d="M116.322 185.919C115.28 186.459 113.07 188.104 112.57 190.37" stroke="#212973" stroke-width="3"/>
<path d="M75.2515 188.347C78.3092 189.291 85.3836 188.752 89.2196 179.041" stroke="#212973" stroke-width="3"/>
<path d="M86.0928 155.958C88.4319 152.633 94.9306 148.914 100.545 153.383C107.562 158.97 107.941 162.561 113.821 161.962" stroke="#212973" stroke-width="3" stroke-linecap="round"/>
<path d="M110.517 139.051C109.692 138.279 108.006 137.138 107.865 138.751C107.763 139.907 108.338 141.36 109.281 142.305M109.281 142.305C109.982 143.008 110.885 143.43 111.865 143.243C112.69 143.085 112.541 142.706 112.125 142.336C111.347 141.642 110.166 141.768 109.281 142.305V142.305Z" stroke="#E17C6E" stroke-width="2" stroke-linecap="round"/>
<path d="M128.727 166.195C128.831 167.105 129.477 168.986 131.229 169.229M135.085 169.229C135.502 169.229 136.628 169.007 137.796 168.116" stroke="#212973" stroke-width="2"/>
<path d="M120.492 160.935C122.577 160.597 126.392 158.912 128.31 154.865" stroke="#212973" stroke-width="2" stroke-linecap="round"/>
<path d="M133.945 140.655C132.426 140.525 132.186 149.347 132.196 149.549L135.19 151.527C135.045 150.488 134.71 146.512 134.831 144.562C134.982 142.124 135.464 140.785 133.945 140.655Z" fill="#FFC2A0" stroke="#E17C6E" stroke-width="2"/>
<path d="M133.993 148.256C135.379 148.731 136.133 154.98 136.336 158.045V162.099C135.08 162.263 133.12 163.455 131.361 162.099C129.778 160.878 130.09 160.151 130.09 159.261C130.09 159.261 128.526 160.42 127.737 159.261C127.1 158.326 126.656 157.284 127.533 156.888C126.147 156.809 126.311 155.108 126.922 154.713C125.393 154.317 126.215 152.738 126.656 152.31C125.739 152.31 125.23 150.926 125.637 149.838C126.045 148.75 132.261 147.663 133.993 148.256Z" fill="#FFC2A0"/>
<mask id="mask6" mask-type="alpha" maskUnits="userSpaceOnUse" x="125" y="148" width="12" height="16">
<path d="M133.993 148.256C135.379 148.731 136.133 154.98 136.336 158.045V162.099C135.08 162.263 132.311 164.372 130.872 162.697C129.894 161.558 130.09 160.151 130.09 159.261C130.09 159.261 128.526 160.42 127.737 159.261C127.1 158.326 126.656 157.284 127.533 156.888C126.147 156.809 126.311 155.108 126.922 154.713C125.393 154.317 126.215 152.738 126.656 152.31C125.739 152.31 125.23 150.926 125.637 149.838C126.045 148.75 132.261 147.663 133.993 148.256Z" fill="#FFA188"/>
</mask>
<g mask="url(#mask6)">
<path d="M132.24 158.712C131.693 158.637 130.513 159.123 129.992 159.376C129.568 159.914 128.702 161.027 128.623 161.179C128.545 161.331 129.894 162.76 130.578 163.455C132.208 163.55 135.544 163.721 135.857 163.645C136.17 163.569 136.704 162.349 136.933 161.748C136.313 161.716 135.29 161.672 133.804 161.748C132.318 161.824 131.947 159.756 132.24 158.712Z" fill="#E17C6E"/>
</g>
<path d="M126.718 152.241C127.839 151.845 130.366 151.094 131.507 151.252M127.024 154.614C128.212 154.153 130.835 153.289 131.813 153.526M127.533 156.987C128.518 156.427 130.794 155.425 132.017 155.899M128.96 159.558C129.911 159.129 132.057 158.371 133.035 158.767" stroke="#E17C6E" stroke-width="2"/>
<path d="M127.06 152.167C126.669 152.294 125.828 152.224 125.593 150.934C125.359 149.644 126.278 149.195 126.766 149.132C128.917 148.626 133.394 147.766 134.098 148.373" stroke="#E17C6E" stroke-width="2"/>
<rect x="112.153" y="196.439" width="46.0742" height="2.22536" fill="#357290"/>
<path d="M151.451 171.96H188.144L174.071 198.665H139.047L151.451 171.96Z" fill="#7DB5C4"/>
<mask id="mask7" mask-type="alpha" maskUnits="userSpaceOnUse" x="139" y="171" width="50" height="28">
<path d="M151.451 171.758H188.144L174.071 198.462H139.047L151.451 171.758Z" fill="#7DB5C4"/>
</mask>
<g mask="url(#mask7)">
<path d="M187.414 189.763C164.731 193.647 153.64 177.22 150.93 168.521L200.548 160.429C205.621 168.588 210.097 185.879 187.414 189.763Z" fill="#64A6C0"/>
</g>
<mask id="mask8" mask-type="alpha" maskUnits="userSpaceOnUse" x="137" y="171" width="52" height="29">
<path d="M150.543 171.556H188.248L173.787 199.879H137.796L150.543 171.556Z" fill="#7DB5C4"/>
</mask>
<g mask="url(#mask8)">
<path d="M153.015 172.306L139.881 200.485H135.294L146.761 168.521H184.704L188.874 172.306H153.015Z" fill="#163D56"/>
</g>
<ellipse cx="165.419" cy="186.526" rx="2.81448" ry="2.02305" fill="#466B7C"/>
<mask id="mask9" mask-type="alpha" maskUnits="userSpaceOnUse" x="162" y="184" width="7" height="5">
<path d="M168.234 186.526C168.234 187.644 166.974 188.549 165.419 188.549C163.865 188.549 162.605 187.644 162.605 186.526C162.605 185.409 163.865 184.503 165.419 184.503C166.974 184.503 168.234 185.409 168.234 186.526Z" fill="#466B7C"/>
</mask>
<g mask="url(#mask9)">
<path d="M173.446 189.46C167.692 188.731 161.736 184.234 159.478 182.076C163.23 181.367 170.819 179.931 171.152 179.85C171.569 179.749 180.638 190.37 173.446 189.46Z" fill="#133B54"/>
</g>
<ellipse rx="0.901984" ry="1.52679" transform="matrix(0.9189 -0.39449 0.41483 0.909899 166.597 182.787)" fill="#133B54"/>
<ellipse rx="0.815963" ry="1.3444" transform="matrix(0.530953 0.847401 -0.861265 0.508156 168.003 183.388)" fill="#133B54"/>
<rect x="34.3486" y="198.744" width="185.102" height="5.26527" fill="#7DB5C4"/>
<mask id="mask10" mask-type="alpha" maskUnits="userSpaceOnUse" x="34" y="198" width="181" height="5">
<rect x="34.3901" y="198.665" width="180.127" height="4.04615" fill="#1C584E"/>
</mask>
<g mask="url(#mask10)">
<rect x="94.8486" y="195.023" width="119.668" height="29.739" fill="#1C584E"/>
</g>
<path d="M201.174 15.3698C201.174 12.1326 203.873 9.50836 207.203 9.50836H239.76C243.09 9.50836 245.789 12.1326 245.789 15.3698V24.5136C245.789 27.7507 243.09 30.375 239.76 30.375H213.823C212.428 30.375 211.075 30.8458 209.996 31.7071L204.912 35.7675C203.552 37.1325 201.174 36.1963 201.174 34.2958V15.3698Z" fill="#7DB5C4"/>
<rect x="208.262" y="14.3637" width="19.7555" height="2.02306" rx="1.01153" fill="white"/>
<rect x="208.262" y="18.8144" width="30.4381" height="2.02306" rx="1.01153" fill="white"/>
<rect x="208.262" y="23.2652" width="27.9504" height="2.02305" rx="1.01153" fill="white"/>
<path d="M47.1069 97.7087C47.1069 95.2535 45.0509 93.2631 42.5147 93.2631H17.7168C15.1806 93.2631 13.1246 95.2535 13.1246 97.7087V104.644C13.1246 107.099 15.1806 109.089 17.7168 109.089H37.4722C38.5354 109.089 39.5656 109.446 40.3871 110.1L44.2598 113.179C45.2958 114.214 47.1069 113.504 47.1069 112.063V97.7087Z" fill="#EE6754"/>
<rect x="17.9998" y="97.0473" width="5.01378" height="1.35147" rx="0.675733" fill="white"/>
<rect x="17.9995" y="100.021" width="9.3312" height="1.35147" rx="0.675733" fill="white"/>
<rect x="17.9995" y="102.994" width="19.6373" height="1.35145" rx="0.675723" fill="white"/>
<rect x="207.845" y="81.3271" width="48.7844" height="47.3397" rx="23.6698" fill="#386D95"/>
<path fill-rule="evenodd" clip-rule="evenodd" d="M228.068 111.155C234.084 111.155 238.855 106.438 238.855 100.749C238.855 95.0593 234.084 90.3422 228.068 90.3422C222.052 90.3422 217.281 95.0593 217.281 100.749C217.281 106.438 222.052 111.155 228.068 111.155ZM228.068 113.089C235.092 113.089 240.785 107.564 240.785 100.749C240.785 93.9329 235.092 88.4078 228.068 88.4078C221.045 88.4078 215.351 93.9329 215.351 100.749C215.351 107.564 221.045 113.089 228.068 113.089Z" fill="white"/>
<path fill-rule="evenodd" clip-rule="evenodd" d="M235.623 108.959C235.996 108.577 236.616 108.56 237.009 108.921L247.47 118.538C247.863 118.899 247.879 119.501 247.506 119.883C247.133 120.265 246.513 120.282 246.12 119.921L235.659 110.304C235.266 109.943 235.25 109.34 235.623 108.959Z" fill="white"/>
<defs>
<linearGradient id="paint0_linear" x1="90.2623" y1="165.284" x2="50.1781" y2="148.25" gradientUnits="userSpaceOnUse">
<stop stop-color="#5B62A9"/>
<stop offset="1" stop-color="#060A2B" stop-opacity="0"/>
</linearGradient>
<linearGradient id="paint1_linear" x1="108.4" y1="198.867" x2="122.028" y2="157.449" gradientUnits="userSpaceOnUse">
<stop offset="0.362526" stop-color="#B1B6E9"/>
<stop offset="1" stop-color="white" stop-opacity="0"/>
</linearGradient>
<linearGradient id="paint2_linear" x1="108.4" y1="198.867" x2="122.028" y2="157.449" gradientUnits="userSpaceOnUse">
<stop offset="0.362526" stop-color="#B1B6E9"/>
<stop offset="1" stop-color="white" stop-opacity="0"/>
</linearGradient>
</defs>
</svg>
