<svg width="219" height="64" viewBox="0 0 219 64" fill="none" xmlns="http://www.w3.org/2000/svg">
<g clip-path="url(#clip0)">
<path d="M64.9888 13.3766H71.0116V39.6108H64.9888V13.3766Z" fill="#505050"/>
<path d="M94.8159 21.391C96.3073 22.8901 97.1103 25.1387 97.1103 28.0793V39.6108H91.3169V28.9441C91.3169 27.3297 90.9728 26.1766 90.2845 25.3694C89.5962 24.5622 88.621 24.2162 87.3018 24.2162C85.8678 24.2162 84.6632 24.6775 83.8028 25.6C82.9424 26.5225 82.4835 27.8486 82.4835 29.636V39.6108H76.6902V19.4306H82.1967V21.7946C82.9424 20.9297 83.9175 20.2955 85.0647 19.8342C86.2119 19.373 87.4738 19.1423 88.7931 19.1423C91.317 19.1423 93.3245 19.8919 94.8159 21.391Z" fill="#505050"/>
<path d="M115.179 38.6306C114.605 39.0342 113.917 39.3802 113.114 39.6108C112.311 39.8414 111.393 39.9567 110.475 39.9567C108.123 39.9567 106.288 39.3225 104.969 38.1117C103.649 36.9009 103.018 35.1135 103.018 32.6919V24.3892H99.9209V19.8919H103.018V14.991H108.812V19.8919H113.802V24.3892H108.812V32.5766C108.812 33.4414 109.041 34.0757 109.443 34.5369C109.902 34.9982 110.475 35.2288 111.278 35.2288C112.196 35.2288 112.942 34.9982 113.63 34.4793L115.179 38.6306Z" fill="#505050"/>
<path d="M126.765 19.8919C127.913 19.373 129.289 19.1423 130.838 19.1423V24.5622C130.207 24.5045 129.748 24.5045 129.519 24.5045C127.855 24.5045 126.593 24.9658 125.618 25.8883C124.643 26.8108 124.184 28.2522 124.184 30.0973V39.6108H118.391V19.4306H123.897V22.0829C124.643 21.1027 125.561 20.4108 126.765 19.8919Z" fill="#505050"/>
<path d="M149.308 21.391C150.971 22.8901 151.774 25.1387 151.774 28.1369V39.6108H146.382V37.0738C145.293 38.9189 143.285 39.8991 140.302 39.8991C138.754 39.8991 137.434 39.6108 136.344 39.0919C135.197 38.5729 134.337 37.8234 133.763 36.9009C133.19 35.9783 132.903 34.9405 132.903 33.7297C132.903 31.8847 133.591 30.3856 134.968 29.2901C136.344 28.1946 138.524 27.6756 141.449 27.6756H146.038C146.038 26.4072 145.637 25.427 144.891 24.7351C144.145 24.0432 142.998 23.6973 141.449 23.6973C140.36 23.6973 139.327 23.8702 138.295 24.2162C137.262 24.5621 136.402 25.0234 135.656 25.6L133.591 21.5063C134.681 20.7567 136 20.1225 137.492 19.7189C138.983 19.3153 140.589 19.0847 142.195 19.0847C145.235 19.1423 147.644 19.8919 149.308 21.391ZM144.375 35.2865C145.12 34.8252 145.694 34.1333 145.981 33.2684V31.1351H142.023C139.671 31.1351 138.467 31.9423 138.467 33.4991C138.467 34.2486 138.754 34.8252 139.327 35.2865C139.901 35.7477 140.704 35.9207 141.736 35.9207C142.711 35.9783 143.572 35.7477 144.375 35.2865Z" fill="#505050"/>
<path d="M175.062 21.391C176.554 22.8901 177.357 25.1387 177.357 28.0793V39.6108H171.563V28.9441C171.563 27.3297 171.219 26.1766 170.531 25.3694C169.842 24.5622 168.867 24.2162 167.548 24.2162C166.114 24.2162 164.91 24.6775 164.049 25.6C163.189 26.5225 162.73 27.8486 162.73 29.636V39.6108H156.937V19.4306H162.443V21.7946C163.189 20.9297 164.164 20.2955 165.311 19.8342C166.458 19.373 167.72 19.1423 169.039 19.1423C171.563 19.1423 173.571 19.8919 175.062 21.391Z" fill="#505050"/>
<path d="M202.193 31.1351H187.108C187.395 32.4036 188.026 33.3838 189.058 34.0756C190.091 34.8252 191.352 35.1711 192.844 35.1711C193.876 35.1711 194.794 34.9982 195.597 34.7099C196.4 34.4216 197.146 33.9027 197.834 33.2108L200.932 36.5549C199.039 38.7459 196.343 39.8414 192.729 39.8414C190.492 39.8414 188.484 39.3802 186.764 38.5153C185.043 37.6504 183.724 36.382 182.748 34.8252C181.831 33.2684 181.314 31.4811 181.314 29.463C181.314 27.5027 181.773 25.7153 182.691 24.1009C183.609 22.5441 184.871 21.2756 186.534 20.4108C188.14 19.5459 189.976 19.0847 191.983 19.0847C193.934 19.0847 195.712 19.4883 197.261 20.3531C198.867 21.218 200.071 22.4288 200.989 23.9856C201.907 25.6 202.366 27.3874 202.366 29.5207C202.308 29.636 202.308 30.2126 202.193 31.1351ZM188.714 24.6774C187.853 25.427 187.28 26.4648 187.108 27.7333H196.916C196.744 26.4648 196.171 25.427 195.31 24.6774C194.45 23.9279 193.36 23.5243 192.041 23.5243C190.664 23.582 189.574 23.9279 188.714 24.6774Z" fill="#505050"/>
<path d="M219 38.6306C218.426 39.0342 217.738 39.3802 216.935 39.6108C216.132 39.8414 215.214 39.9567 214.296 39.9567C211.945 39.9567 210.109 39.3225 208.79 38.1117C207.471 36.9009 206.84 35.1135 206.84 32.6919V24.3892H203.742V19.8919H206.84V14.991H212.633V19.8919H217.623V24.3892H212.633V32.5766C212.633 33.4414 212.862 34.0757 213.264 34.5369C213.723 34.9982 214.296 35.2288 215.099 35.2288C216.017 35.2288 216.763 34.9982 217.451 34.4793L219 38.6306Z" fill="#505050"/>
<path d="M69.8069 52.4108H66.8242L66.2506 53.7946H64.7593L67.6273 47.3369H69.0613L71.9293 53.7946H70.3805L69.8069 52.4108ZM69.3481 51.2576L68.3156 48.7784L67.2831 51.2576H69.3481Z" fill="#505050"/>
<path d="M73.4206 53.5639C73.0191 53.3333 72.6749 53.045 72.4455 52.6414C72.216 52.2378 72.1013 51.8342 72.1013 51.3153C72.1013 50.7964 72.216 50.3928 72.4455 49.9892C72.6749 49.5856 73.0191 49.2973 73.4206 49.0666C73.8221 48.836 74.281 48.7207 74.8546 48.7207C75.3708 48.7207 75.8297 48.836 76.2312 49.0666C76.6328 49.2973 76.9196 49.5856 77.0916 49.9892L76.0018 50.5657C75.7724 50.1045 75.3708 49.8739 74.912 49.8739C74.5678 49.8739 74.2236 49.9892 73.9942 50.2198C73.7648 50.4504 73.65 50.7964 73.65 51.2C73.65 51.6036 73.7648 51.9495 73.9942 52.1802C74.2236 52.4108 74.5678 52.5261 74.912 52.5261C75.3708 52.5261 75.7724 52.2955 76.0018 51.8342L77.0916 52.4684C76.9196 52.872 76.6328 53.1603 76.2312 53.391C75.8297 53.6216 75.3708 53.7369 74.8546 53.7369C74.3384 53.8522 73.8221 53.7369 73.4206 53.5639Z" fill="#505050"/>
<path d="M78.7551 53.5639C78.3536 53.3333 78.0094 53.045 77.78 52.6414C77.5505 52.2378 77.4358 51.8342 77.4358 51.3153C77.4358 50.7964 77.5505 50.3928 77.78 49.9892C78.0094 49.5856 78.3536 49.2973 78.7551 49.0666C79.1566 48.836 79.6155 48.7207 80.1891 48.7207C80.7053 48.7207 81.1642 48.836 81.5657 49.0666C81.9672 49.2973 82.254 49.5856 82.4261 49.9892L81.3363 50.5657C81.1068 50.1045 80.7053 49.8739 80.2464 49.8739C79.9023 49.8739 79.5581 49.9892 79.3287 50.2198C79.0992 50.4504 78.9845 50.7964 78.9845 51.2C78.9845 51.6036 79.0992 51.9495 79.3287 52.1802C79.5581 52.4108 79.9023 52.5261 80.2464 52.5261C80.7053 52.5261 81.1068 52.2955 81.3363 51.8342L82.4261 52.4684C82.254 52.872 81.9672 53.1603 81.5657 53.391C81.1642 53.6216 80.7053 53.7369 80.1891 53.7369C79.6155 53.8522 79.1566 53.7369 78.7551 53.5639Z" fill="#505050"/>
<path d="M87.8753 51.7189H84.1469C84.2042 52.0072 84.3763 52.2955 84.6058 52.4684C84.8352 52.6414 85.1794 52.7567 85.5235 52.7567C85.753 52.7567 85.9824 52.6991 86.2118 52.6414C86.3839 52.5838 86.6134 52.4684 86.7854 52.2955L87.5311 53.1027C87.0722 53.6216 86.3839 53.9099 85.5235 53.9099C84.9499 53.9099 84.491 53.7946 84.0322 53.5639C83.6306 53.3333 83.2865 53.045 83.0571 52.6414C82.8276 52.2378 82.7129 51.8342 82.7129 51.3153C82.7129 50.854 82.8276 50.3928 83.0571 49.9892C83.2865 49.5856 83.5733 49.2973 83.9748 49.0666C84.3763 48.836 84.8352 48.7207 85.2941 48.7207C85.753 48.7207 86.2118 48.836 86.6134 49.009C87.0149 49.182 87.3017 49.5279 87.5311 49.9315C87.7606 50.3351 87.8753 50.7964 87.8753 51.3153C87.9326 51.373 87.9326 51.4883 87.8753 51.7189ZM84.5484 50.1045C84.319 50.2775 84.2042 50.5657 84.1469 50.854H86.556C86.4986 50.5657 86.3839 50.2775 86.1545 50.1045C85.925 49.9315 85.6956 49.8162 85.3514 49.8162C85.0646 49.8162 84.7778 49.9315 84.5484 50.1045Z" fill="#505050"/>
<path d="M89.3094 53.7369C88.9078 53.6216 88.621 53.5063 88.3916 53.3333L88.8505 52.2955C89.0799 52.4108 89.3094 52.5261 89.6535 52.6414C89.9403 52.7567 90.2845 52.7567 90.5713 52.7567C91.1449 52.7567 91.489 52.5838 91.489 52.2955C91.489 52.1802 91.4317 52.0648 91.2596 52.0072C91.0875 51.9495 90.8581 51.8919 90.5139 51.8342C90.1124 51.7766 89.7682 51.7189 89.5388 51.6036C89.3094 51.4883 89.0226 51.373 88.8505 51.2C88.6784 50.9694 88.5637 50.6811 88.5637 50.3351C88.5637 50.0468 88.6784 49.7585 88.8505 49.5279C89.0226 49.2973 89.3094 49.1243 89.6535 48.9513C89.9977 48.836 90.3992 48.7207 90.8581 48.7207C91.2022 48.7207 91.5464 48.7784 91.8905 48.836C92.2347 48.8937 92.5215 49.009 92.7509 49.182L92.2921 50.2198C91.8332 49.9892 91.3743 49.8739 90.8581 49.8739C90.5713 49.8739 90.3418 49.9315 90.1698 49.9892C89.9977 50.0468 89.9403 50.1621 89.9403 50.3351C89.9403 50.5081 89.9977 50.6234 90.1698 50.6811C90.3418 50.7387 90.5713 50.7964 90.9728 50.854C91.3743 50.9117 91.7185 50.9693 91.9479 51.0847C92.1774 51.1423 92.4068 51.3153 92.6362 51.4883C92.8083 51.7189 92.923 51.9495 92.923 52.3531C92.923 52.6414 92.8083 52.9297 92.6362 53.1603C92.4641 53.391 92.1774 53.5639 91.8332 53.7369C91.489 53.8522 91.0875 53.9099 90.5713 53.9099C90.1124 53.8522 89.7109 53.7946 89.3094 53.7369Z" fill="#505050"/>
<path d="M94.1848 53.7369C93.7833 53.6216 93.4965 53.5063 93.2671 53.3333L93.726 52.2955C93.9554 52.4108 94.1848 52.5261 94.529 52.6414C94.8158 52.7567 95.16 52.7567 95.4468 52.7567C96.0204 52.7567 96.3645 52.5838 96.3645 52.2955C96.3645 52.1802 96.3072 52.0648 96.1351 52.0072C95.963 51.9495 95.7336 51.8919 95.3894 51.8342C94.9879 51.7766 94.6437 51.7189 94.4143 51.6036C94.1848 51.4883 93.898 51.373 93.726 51.2C93.5539 50.9694 93.4392 50.6811 93.4392 50.3351C93.4392 50.0468 93.5539 49.7585 93.726 49.5279C93.898 49.2973 94.1848 49.1243 94.529 48.9513C94.8732 48.836 95.2747 48.7207 95.7336 48.7207C96.0777 48.7207 96.4219 48.7784 96.766 48.836C97.1102 48.8937 97.397 49.009 97.6264 49.182L97.1675 50.2198C96.7087 49.9892 96.2498 49.8739 95.7336 49.8739C95.4468 49.8739 95.2173 49.9315 95.0452 49.9892C94.8732 50.0468 94.8158 50.1621 94.8158 50.3351C94.8158 50.5081 94.8732 50.6234 95.0452 50.6811C95.2173 50.7387 95.4468 50.7964 95.8483 50.854C96.2498 50.9117 96.594 50.9693 96.8234 51.0847C97.0528 51.1423 97.2823 51.3153 97.5117 51.4883C97.6838 51.7189 97.7985 51.9495 97.7985 52.3531C97.7985 52.6414 97.6838 52.9297 97.5117 53.1603C97.3396 53.391 97.0528 53.5639 96.7087 53.7369C96.3645 53.8522 95.963 53.9099 95.4468 53.9099C94.9879 53.8522 94.5864 53.7946 94.1848 53.7369Z" fill="#505050"/>
<path d="M98.6589 47.9135C98.4868 47.7405 98.4294 47.5676 98.4294 47.3369C98.4294 47.1063 98.4868 46.9333 98.6589 46.7604C98.831 46.5874 99.0604 46.5297 99.2898 46.5297C99.5766 46.5297 99.7487 46.5874 99.9208 46.7604C100.093 46.9333 100.15 47.1063 100.15 47.3369C100.15 47.5676 100.093 47.7982 99.9208 47.9135C99.7487 48.0865 99.5193 48.1441 99.2898 48.1441C99.003 48.1441 98.831 48.0865 98.6589 47.9135ZM98.5442 48.836H99.9782V53.7946H98.5442V48.836Z" fill="#505050"/>
<path d="M105.485 49.0667C105.886 49.2973 106.173 49.5856 106.345 49.9892C106.575 50.3928 106.689 50.7964 106.689 51.3153C106.689 51.8342 106.575 52.2955 106.345 52.6414C106.116 53.045 105.829 53.3333 105.485 53.5639C105.083 53.7946 104.682 53.9099 104.223 53.9099C103.535 53.9099 103.018 53.6793 102.674 53.2757V53.8522H101.298V46.9333H102.732V49.3549C103.076 48.9513 103.592 48.7784 104.223 48.7784C104.682 48.7784 105.083 48.836 105.485 49.0667ZM104.854 52.2955C105.083 52.0648 105.198 51.7189 105.198 51.3153C105.198 50.9117 105.083 50.5658 104.854 50.3351C104.624 50.1045 104.338 49.9892 103.936 49.9892C103.535 49.9892 103.248 50.1045 103.018 50.3351C102.789 50.5658 102.674 50.9117 102.674 51.3153C102.674 51.7189 102.789 52.0648 103.018 52.2955C103.248 52.5261 103.535 52.6414 103.936 52.6414C104.338 52.6414 104.624 52.5838 104.854 52.2955Z" fill="#505050"/>
<path d="M107.664 47.9135C107.492 47.7405 107.435 47.5676 107.435 47.3369C107.435 47.1063 107.492 46.9333 107.664 46.7604C107.837 46.5874 108.066 46.5297 108.295 46.5297C108.582 46.5297 108.754 46.5874 108.926 46.7604C109.098 46.9333 109.156 47.1063 109.156 47.3369C109.156 47.5676 109.098 47.7982 108.926 47.9135C108.754 48.0865 108.525 48.1441 108.295 48.1441C108.066 48.1441 107.837 48.0865 107.664 47.9135ZM107.607 48.836H109.041V53.7946H107.607V48.836Z" fill="#505050"/>
<path d="M110.36 46.9333H111.794V53.7946H110.36V46.9333Z" fill="#505050"/>
<path d="M113.171 47.9135C112.999 47.7405 112.942 47.5676 112.942 47.3369C112.942 47.1063 112.999 46.9333 113.171 46.7604C113.343 46.5874 113.573 46.5297 113.802 46.5297C114.031 46.5297 114.261 46.5874 114.433 46.7604C114.605 46.9333 114.662 47.1063 114.662 47.3369C114.662 47.5676 114.605 47.7982 114.433 47.9135C114.261 48.0865 114.031 48.1441 113.802 48.1441C113.573 48.1441 113.343 48.0865 113.171 47.9135ZM113.114 48.836H114.548V53.7946H113.114V48.836Z" fill="#505050"/>
<path d="M119.022 53.564C118.907 53.6793 118.735 53.7369 118.506 53.7946C118.276 53.8523 118.104 53.8523 117.875 53.8523C117.301 53.8523 116.842 53.6793 116.498 53.391C116.154 53.1027 116.039 52.6414 116.039 52.0649V50.0468H115.293V48.9513H116.039V47.7405H117.473V48.9513H118.678V50.0468H117.473V52.0649C117.473 52.2955 117.531 52.4108 117.645 52.5261C117.76 52.6414 117.875 52.6991 118.104 52.6991C118.334 52.6991 118.506 52.6414 118.678 52.5261L119.022 53.564Z" fill="#505050"/>
<path d="M124.586 48.836L122.349 54.0829C122.119 54.6594 121.832 55.063 121.488 55.2937C121.144 55.5243 120.742 55.6396 120.284 55.6396C120.054 55.6396 119.767 55.582 119.538 55.5243C119.308 55.4666 119.079 55.3513 118.907 55.1783L119.423 54.1405C119.538 54.2558 119.653 54.3135 119.825 54.3711C119.939 54.4288 120.112 54.4288 120.226 54.4288C120.398 54.4288 120.57 54.3711 120.685 54.3135C120.8 54.1982 120.915 54.0829 121.029 53.8522V53.7946L118.907 48.7784H120.398L121.775 52.1225L123.152 48.7784H124.586V48.836Z" fill="#505050"/>
<path d="M129.347 48.5477V50.2775H132.329V51.4883H129.347V53.8522H127.855V47.3369H132.673V48.5477H129.347Z" fill="#505050"/>
<path d="M134.394 53.5639C133.993 53.3333 133.649 53.045 133.419 52.6414C133.19 52.2378 133.075 51.8342 133.075 51.3153C133.075 50.7964 133.19 50.3928 133.419 49.9892C133.649 49.5856 133.993 49.2973 134.394 49.0666C134.796 48.836 135.255 48.7207 135.771 48.7207C136.287 48.7207 136.746 48.836 137.148 49.0666C137.549 49.2973 137.893 49.5856 138.123 49.9892C138.352 50.3928 138.467 50.7964 138.467 51.3153C138.467 51.8342 138.352 52.2378 138.123 52.6414C137.893 53.045 137.549 53.3333 137.148 53.5639C136.746 53.7946 136.287 53.9099 135.771 53.9099C135.255 53.9099 134.796 53.7369 134.394 53.5639ZM136.689 52.2955C136.918 52.0648 137.033 51.7189 137.033 51.3153C137.033 50.9117 136.918 50.5657 136.689 50.3351C136.459 50.1045 136.172 49.9892 135.771 49.9892C135.369 49.9892 135.083 50.1045 134.853 50.3351C134.624 50.5657 134.509 50.9117 134.509 51.3153C134.509 51.7189 134.624 52.0648 134.853 52.2955C135.083 52.5261 135.369 52.6414 135.771 52.6414C136.172 52.6414 136.459 52.5838 136.689 52.2955Z" fill="#505050"/>
<path d="M141.507 48.9513C141.794 48.836 142.138 48.7784 142.482 48.7784V50.1045C142.31 50.1045 142.195 50.1045 142.138 50.1045C141.736 50.1045 141.392 50.2198 141.163 50.4504C140.933 50.6811 140.818 51.027 140.818 51.4883V53.8522H139.385V48.8937H140.761V49.5279C140.991 49.2396 141.22 49.0666 141.507 48.9513Z" fill="#505050"/>
<path d="M151.602 51.027C151.832 51.3153 151.889 51.6612 151.889 52.0649C151.889 52.6414 151.66 53.045 151.258 53.391C150.857 53.7369 150.168 53.8522 149.365 53.8522H146.038V47.3369H149.136C149.939 47.3369 150.512 47.5099 150.914 47.7982C151.315 48.0865 151.545 48.4901 151.545 49.009C151.545 49.2973 151.487 49.5856 151.315 49.8739C151.143 50.1045 150.971 50.3351 150.684 50.4504C151.143 50.5657 151.43 50.7387 151.602 51.027ZM147.53 48.4324V49.9315H149.021C149.365 49.9315 149.652 49.8739 149.824 49.7585C149.996 49.6432 150.111 49.4126 150.111 49.182C150.111 48.9513 149.996 48.7207 149.824 48.6054C149.652 48.4901 149.365 48.4324 149.021 48.4324H147.53ZM150.111 52.4685C150.283 52.3531 150.398 52.1225 150.398 51.8919C150.398 51.373 149.996 51.0847 149.193 51.0847H147.472V52.6991H149.193C149.652 52.6414 149.939 52.5838 150.111 52.4685Z" fill="#505050"/>
<path d="M162.673 47.3369L160.608 53.7946H159.002L157.568 49.4126L156.134 53.7946H154.528L152.405 47.3369H153.954L155.388 51.8919L156.879 47.3369H158.256L159.69 51.8919L161.181 47.3369H162.673Z" fill="#505050"/>
<path d="M167.491 52.4108H164.508L163.934 53.7946H162.443L165.311 47.3369H166.745L169.613 53.7946H168.064L167.491 52.4108ZM166.975 51.2576L165.942 48.7784L164.91 51.2576H166.975Z" fill="#505050"/>
<path d="M58.6217 32.2883C58.6217 41.8595 58.6217 51.4883 58.6217 61.0595C58.6217 61.636 58.6217 62.2126 58.6217 62.7892C58.6217 63.3658 58.679 63.9424 57.8186 64C57.0156 64.0577 56.9009 63.4811 56.9009 62.9045C56.9009 62.3279 56.9009 61.7514 56.9009 61.1748C56.9009 41.6865 56.9009 22.1982 56.9009 2.70991C56.9009 2.5946 56.9009 2.47928 56.9009 2.42163C57.1877 1.61442 56.0978 -0.0576536 57.876 4.09991e-06C59.31 0.0576618 58.6217 1.4991 58.6217 2.30631C58.679 8.93694 58.679 15.5676 58.679 22.1982C58.6217 25.5424 58.6217 28.8865 58.6217 32.2883Z" fill="#505050"/>
<path d="M29.8845 5.13153C34.2438 5.18919 40.7255 8.07207 46.1173 13.4342C47.6087 14.9333 49.1574 16.3748 50.534 17.9315C51.5665 19.0847 51.6812 20.4685 50.534 21.5063C49.5016 22.4865 48.297 22.1405 47.2645 21.1027C45.0275 18.854 42.8478 16.5477 40.3813 14.5874C30.1139 6.11171 15.143 8.76396 8.1451 20.1802C7.97302 20.4108 7.8583 20.6991 7.68622 20.9297C6.94055 22.1982 5.79335 23.0631 4.35935 22.2559C2.868 21.3333 3.04008 20.0072 3.78575 18.5081C7.97302 10.3784 16.8638 5.13153 29.8845 5.13153Z" fill="#1F6062"/>
<path d="M16.0608 32.9225C16.1182 28.2523 18.3552 24.7928 22.4851 22.8901C26.615 20.9874 30.7449 21.3334 34.1865 24.5622C39.2915 29.4631 44.2245 34.537 49.2722 39.4955C50.362 40.591 50.7635 41.8595 49.6737 43.0126C48.4691 44.3388 47.0925 43.9351 45.9453 42.782C41.2418 38.1117 36.5383 33.4415 31.9495 28.7712C29.9419 26.6955 27.5328 26.1189 24.8942 27.0991C21.3953 28.3676 19.8465 32.2306 21.4526 35.5748C21.9115 36.4973 22.5425 37.3622 23.1734 38.1694C24.1485 39.3802 24.4927 40.4757 23.2308 41.6865C21.7968 43.0126 20.7069 42.3207 19.5597 41.1676C17.2653 38.8036 16.1182 36.1514 16.0608 32.9225Z" fill="#1F6062"/>
<path d="M8.03052 33.1532C8.37468 24.2162 12.1604 18.3351 19.7319 14.9333C21.2807 14.2415 23.1162 13.3189 24.1486 15.5676C25.1238 17.7586 23.4603 18.5658 21.7395 19.2577C11.7016 23.4667 9.52187 35.2865 17.2655 43.4162C20.6497 46.9333 24.0913 50.2198 27.5329 53.564C28.0491 54.0829 28.6801 54.6595 29.0242 55.2937C29.5978 56.3315 29.4258 57.3694 28.5654 58.1766C27.7623 58.9261 26.6151 59.0991 25.9268 58.4072C19.6172 51.8919 11.5868 46.7027 8.71884 37.3045C8.25996 35.8054 8.2026 34.1333 8.03052 33.1532Z" fill="#1F6062"/>
<path d="M-2.27061e-05 33.4414C-2.27061e-05 31.9423 -2.27061e-05 31.0198 -2.27061e-05 30.0396C-0.0573826 28.5405 0.229417 27.2721 2.12229 27.3874C3.95781 27.5027 4.64613 28.5982 4.41669 30.2703C3.78573 35.9207 5.33445 40.9369 8.66132 45.3766C10.6116 47.9712 13.078 50.1621 15.3151 52.4685C16.5196 53.6793 17.4374 54.9477 15.946 56.3892C14.512 57.8306 13.1927 56.8504 11.9882 55.6973C6.88316 50.6811 1.77813 45.6072 0.401496 38.054C0.0573372 36.382 0.0573372 34.6522 -2.27061e-05 33.4414Z" fill="#1F6062"/>
<path d="M32.4086 14.2991C34.703 14.7604 37.1121 15.7982 39.005 17.5856C43.3643 21.7369 47.6089 26.0036 51.9109 30.2126C53.1155 31.4234 53.8038 32.8072 52.4272 34.191C51.0505 35.5171 49.846 34.5369 48.7561 33.4414C45.6013 30.3279 42.4465 27.2721 39.3491 24.1586C37.1121 21.9099 34.875 19.7766 31.7202 18.7964C30.5157 18.3928 29.5406 17.5279 29.8274 15.9712C30.0568 14.7027 30.9172 14.2414 32.4086 14.2991Z" fill="#1F6062"/>
<path d="M43.7084 51.6036C42.676 51.5459 41.9303 50.9117 41.2993 50.2198C36.4811 45.3766 31.6629 40.591 26.8446 35.7478C25.6401 34.5369 24.9518 33.2108 26.3284 31.7694C27.6477 30.4432 28.9096 31.0775 30.0568 32.2306C34.9897 37.1892 39.9227 42.1478 44.8556 47.1063C45.6587 47.9135 46.2896 48.7207 45.7734 49.8739C45.4292 50.7387 44.6836 51.373 43.7084 51.6036Z" fill="#1F6062"/>
<path d="M35.3337 56.3315C34.9895 56.1585 34.4733 56.0432 34.1291 55.7549C31.5479 53.218 28.9667 50.6234 26.4429 48.0288C25.5251 47.0487 25.6972 45.8955 26.6723 44.973C27.7622 43.9928 28.9094 43.8775 29.9992 44.9153C32.4657 47.2793 34.8748 49.7586 37.2839 52.1802C38.1443 53.045 38.1443 54.0829 37.5707 55.0631C37.1692 55.9279 36.3662 56.2162 35.3337 56.3315Z" fill="#1F6062"/>
</g>
<defs>
<clipPath id="clip0">
<rect width="219" height="64" fill="white"/>
</clipPath>
</defs>
</svg>
