<svg width="286" height="210" viewBox="0 0 286 210" fill="none" xmlns="http://www.w3.org/2000/svg">
<path d="M279.279 156.193C296.801 183.037 275.96 201.899 263.349 207.975C208.392 207.975 86.531 209.632 38.7423 207.975C-20.9935 205.904 -3.47098 119.324 36.3529 107.31C76.1768 95.2969 43.3333 48.419 68.0952 31.8513C147.023 -20.958 160.205 74.1697 242.641 67.1274C280.315 63.9089 257.375 122.638 279.279 156.193Z" fill="#FFF4E4"/>
<path d="M135.592 194.942C134.078 189.492 138.748 184.596 141.273 182.829L159.83 179.044L190.506 171.852L201.11 189.643L190.506 209.326L162.481 207.434L144.682 204.784C142.283 203.775 137.107 200.393 135.592 194.942Z" fill="#7B7979"/>
<rect width="30.3333" height="2.07096" rx="1.03548" transform="matrix(-1 0 0 1 167.349 19.0113)" fill="#FDD79F"/>
<rect width="14.8571" height="2.07097" rx="1.03548" transform="matrix(-1 0 0 1 167.762 24.81)" fill="#FDD79F"/>
<rect width="52.2063" height="2.07097" rx="1.03548" transform="matrix(-1 0 0 1 167.762 30.6087)" fill="#FDD79F"/>
<rect width="13.619" height="2.07096" rx="1.03548" transform="matrix(-1 0 0 1 168.793 41.5848)" fill="#FDD79F"/>
<rect width="52.2064" height="2.07098" rx="1.03549" transform="matrix(-1 0 0 1 169.206 47.3835)" fill="#FDD79F"/>
<rect width="52.2064" height="2.07097" rx="1.03548" transform="matrix(-1 0 0 1 169.206 53.1822)" fill="#FDD79F"/>
<rect width="51.7937" height="2.07096" rx="1.03548" transform="matrix(-1 0 0 1 171.063 68.9216)" fill="#FDD79F"/>
<rect width="52.2064" height="2.07097" rx="1.03548" transform="matrix(-1 0 0 1 171.476 74.7203)" fill="#FDD79F"/>
<rect width="52.2064" height="2.07095" rx="1.03548" transform="matrix(-1 0 0 1 171.476 80.519)" fill="#FDD79F"/>
<ellipse rx="6.9127" ry="6.93773" transform="matrix(-1 0 0 1 184.096 75.8593)" fill="white"/>
<ellipse rx="6.9127" ry="6.93773" transform="matrix(-1 0 0 1 184.096 26.5704)" fill="#EE6754"/>
<path fill-rule="evenodd" clip-rule="evenodd" d="M184.295 28.77C184.506 29.0126 184.848 29.0126 185.059 28.77L186.929 26.6049C187.14 26.3623 187.14 25.9689 186.929 25.7262C186.719 25.4836 186.377 25.4836 186.166 25.7262L184.677 27.452L181.819 24.1636C181.608 23.921 181.266 23.921 181.055 24.1636C180.844 24.4063 180.844 24.7996 181.055 25.0423L184.295 28.77Z" fill="white"/>
<path fill-rule="evenodd" clip-rule="evenodd" d="M184.295 78.0589C184.506 78.3016 184.848 78.3016 185.059 78.0589L186.929 75.8938C187.14 75.6512 187.14 75.2578 186.929 75.0152C186.719 74.7726 186.377 74.7726 186.166 75.0152L184.677 76.741L181.819 73.4526C181.608 73.2099 181.266 73.2099 181.055 73.4526C180.844 73.6952 180.844 74.0886 181.055 74.3312L184.295 78.0589Z" fill="#EE6754"/>
<rect x="206.143" y="11.9701" width="70.3651" height="79.525" rx="35.1825" fill="#FFE2B7"/>
<path d="M206.143 24.81C206.143 17.7187 211.891 11.9701 218.983 11.9701H263.668C270.759 11.9701 276.508 17.7187 276.508 24.81H206.143Z" fill="#FFBF56"/>
<path d="M227.459 16.7142V17.2659H225.208V19.018H227.035V19.5697H225.208V21.9107H224.532V16.7142H227.459Z" fill="white"/>
<path d="M228.951 17.2659V19.0031H230.838V19.5622H228.951V21.3515H231.061V21.9107H228.275V16.7068H231.061V17.2659H228.951Z" fill="white"/>
<path d="M234.676 19.2342C234.865 19.264 235.035 19.341 235.189 19.4653C235.347 19.5896 235.471 19.7436 235.56 19.9275C235.655 20.1114 235.702 20.3078 235.702 20.5165C235.702 20.7799 235.635 21.0185 235.501 21.2322C235.367 21.441 235.172 21.6075 234.914 21.7318C234.662 21.851 234.362 21.9107 234.015 21.9107H232.084V16.7142H233.941C234.293 16.7142 234.592 16.7739 234.84 16.8932C235.087 17.0075 235.273 17.164 235.397 17.3629C235.521 17.5617 235.583 17.7853 235.583 18.0338C235.583 18.342 235.499 18.598 235.33 18.8018C235.167 19.0006 234.949 19.1447 234.676 19.2342ZM232.76 18.9583H233.896C234.213 18.9583 234.459 18.8838 234.632 18.7347C234.805 18.5856 234.892 18.3793 234.892 18.1159C234.892 17.8524 234.805 17.6462 234.632 17.4971C234.459 17.3479 234.208 17.2734 233.882 17.2734H232.76V18.9583ZM233.956 21.3515C234.293 21.3515 234.555 21.272 234.743 21.113C234.931 20.9539 235.026 20.7327 235.026 20.4494C235.026 20.1611 234.927 19.935 234.728 19.771C234.53 19.602 234.265 19.5175 233.934 19.5175H232.76V21.3515H233.956Z" fill="white"/>
<path d="M239.366 21.9107L238.133 19.7859H237.316V21.9107H236.64V16.7142H238.311C238.702 16.7142 239.032 16.7813 239.299 16.9155C239.571 17.0497 239.775 17.2311 239.908 17.4598C240.042 17.6884 240.109 17.9494 240.109 18.2426C240.109 18.6005 240.005 18.9161 239.797 19.1894C239.594 19.4628 239.287 19.6442 238.876 19.7337L240.176 21.9107H239.366ZM237.316 19.2416H238.311C238.678 19.2416 238.952 19.1522 239.136 18.9732C239.319 18.7893 239.411 18.5458 239.411 18.2426C239.411 17.9344 239.319 17.6959 239.136 17.5269C238.957 17.3579 238.683 17.2734 238.311 17.2734H237.316V19.2416Z" fill="white"/>
<path d="M241.82 16.7142V20.0021C241.82 20.4643 241.932 20.8073 242.155 21.0309C242.382 21.2546 242.697 21.3664 243.098 21.3664C243.494 21.3664 243.804 21.2546 244.027 21.0309C244.254 20.8073 244.368 20.4643 244.368 20.0021V16.7142H245.044V19.9946C245.044 20.4271 244.958 20.7924 244.784 21.0906C244.611 21.3838 244.376 21.6025 244.079 21.7467C243.786 21.8908 243.457 21.9629 243.091 21.9629C242.724 21.9629 242.392 21.8908 242.095 21.7467C241.803 21.6025 241.57 21.3838 241.397 21.0906C241.229 20.7924 241.144 20.4271 241.144 19.9946V16.7142H241.82Z" fill="white"/>
<path d="M249.233 20.7551H246.974L246.558 21.9107H245.845L247.717 16.744H248.497L250.362 21.9107H249.649L249.233 20.7551ZM249.039 20.2034L248.103 17.5791L247.167 20.2034H249.039Z" fill="white"/>
<path d="M253.904 21.9107L252.671 19.7859H251.854V21.9107H251.178V16.7142H252.849C253.24 16.7142 253.57 16.7813 253.837 16.9155C254.109 17.0497 254.312 17.2311 254.446 17.4598C254.58 17.6884 254.647 17.9494 254.647 18.2426C254.647 18.6005 254.543 18.9161 254.335 19.1894C254.132 19.4628 253.825 19.6442 253.414 19.7337L254.714 21.9107H253.904ZM251.854 19.2416H252.849C253.215 19.2416 253.49 19.1522 253.674 18.9732C253.857 18.7893 253.948 18.5458 253.948 18.2426C253.948 17.9344 253.857 17.6959 253.674 17.5269C253.495 17.3579 253.22 17.2734 252.849 17.2734H251.854V19.2416Z" fill="white"/>
<path d="M259.322 16.7142L257.636 19.9499V21.9107H256.96V19.9499L255.266 16.7142H256.017L257.294 19.346L258.572 16.7142H259.322Z" fill="white"/>
<rect x="209.515" y="31.4371" width="12.5873" height="9.52643" rx="4.76321" fill="#FFEACB"/>
<rect x="225.817" y="31.4371" width="12.7937" height="9.52643" rx="4.76321" fill="#EE6754"/>
<rect x="242.325" y="31.4371" width="12.5873" height="9.52643" rx="4.76321" fill="#FFEACB"/>
<rect x="258.626" y="31.4371" width="12.5873" height="9.52643" rx="4.76321" fill="#FFEACB"/>
<rect x="209.515" y="44.8984" width="12.5873" height="9.52643" rx="4.76321" fill="#FFEACB"/>
<rect x="225.817" y="44.8984" width="12.7937" height="9.52643" rx="4.76322" fill="#FFEACB"/>
<rect x="242.325" y="44.8984" width="12.5873" height="9.52643" rx="4.76322" fill="#FFEACB"/>
<rect x="258.626" y="44.8984" width="12.5873" height="9.52643" rx="4.76322" fill="#FFEACB"/>
<rect x="209.515" y="58.3596" width="12.5873" height="9.52644" rx="4.76322" fill="#FFEACB"/>
<rect x="225.817" y="58.3596" width="12.7937" height="9.52644" rx="4.76322" fill="#FFEACB"/>
<rect x="242.325" y="58.3596" width="12.5873" height="9.52644" rx="4.76322" fill="#FFEACB"/>
<rect x="258.626" y="58.3596" width="12.5873" height="9.52644" rx="4.76322" fill="#EE6754"/>
<rect x="209.515" y="71.8209" width="12.5873" height="9.52644" rx="4.76322" fill="#FFEACB"/>
<rect x="225.817" y="71.8209" width="12.7937" height="9.52644" rx="4.76322" fill="#FFEACB"/>
<rect x="242.325" y="71.8209" width="12.5873" height="9.52644" rx="4.76322" fill="#EE6754"/>
<rect x="258.626" y="71.8209" width="12.5873" height="9.52644" rx="4.76322" fill="#FFEACB"/>
<rect width="56.746" height="27.5438" rx="13.7719" transform="matrix(-1 0 0 1 192.111 105.578)" fill="#FFE2B7"/>
<rect width="5.15872" height="8.90514" transform="matrix(-1 0 0 1 188.809 46.3481)" fill="#7DB5C4"/>
<rect width="5.15872" height="8.90514" transform="matrix(-1 0 0 1 188.809 46.3481)" fill="#7DB5C4"/>
<rect width="5.15875" height="14.0826" transform="matrix(-1 0 0 1 184.682 41.1707)" fill="#7DB5C4"/>
<rect width="5.15875" height="14.0826" transform="matrix(-1 0 0 1 184.682 41.1707)" fill="#FF546C"/>
<rect width="4.74603" height="10.5619" transform="matrix(-1 0 0 1 179.524 44.6913)" fill="#7DB5C4"/>
<rect width="4.74603" height="10.5619" transform="matrix(-1 0 0 1 179.524 44.6913)" fill="#FFFFFD"/>
<path d="M229.802 118.107C229.802 128 237.793 136.021 247.651 136.021C257.509 136.021 265.5 128 265.5 118.107C265.5 108.213 257.509 100.193 247.651 100.193C237.793 100.193 229.802 108.213 229.802 118.107ZM258.725 118.107C258.725 124.245 253.767 129.221 247.651 129.221C241.535 129.221 236.577 124.245 236.577 118.107C236.577 111.969 241.535 106.993 247.651 106.993C253.767 106.993 258.725 111.969 258.725 118.107Z" fill="#FDD79F"/>
<path d="M229.802 118.107C229.802 128 237.793 136.021 247.651 136.021C257.509 136.021 265.5 128 265.5 118.107C265.5 108.213 257.509 100.193 247.651 100.193C237.793 100.193 229.802 108.213 229.802 118.107ZM258.725 118.107C258.725 124.245 253.767 129.221 247.651 129.221C241.535 129.221 236.577 124.245 236.577 118.107C236.577 111.969 241.535 106.993 247.651 106.993C253.767 106.993 258.725 111.969 258.725 118.107Z" fill="#FDD79F"/>
<path d="M229.802 118.107C229.802 114.711 230.763 111.386 232.574 108.518C234.385 105.65 236.971 103.357 240.031 101.908C243.09 100.458 246.497 99.911 249.854 100.33C253.212 100.749 256.381 102.117 258.994 104.275C261.606 106.433 263.553 109.291 264.609 112.517C265.665 115.743 265.785 119.204 264.956 122.496C264.127 125.788 262.383 128.775 259.928 131.111C257.472 133.446 254.405 135.033 251.085 135.686L249.781 129.013C251.841 128.608 253.744 127.624 255.268 126.175C256.791 124.726 257.873 122.872 258.387 120.83C258.902 118.787 258.827 116.64 258.172 114.639C257.517 112.638 256.309 110.864 254.688 109.525C253.067 108.187 251.101 107.338 249.018 107.078C246.935 106.818 244.821 107.157 242.923 108.057C241.025 108.956 239.421 110.378 238.297 112.158C237.174 113.937 236.577 116 236.577 118.107H229.802Z" fill="#FDD79F"/>
<path d="M229.802 118.107C229.802 114.711 230.763 111.386 232.574 108.518C234.385 105.65 236.971 103.357 240.031 101.908C243.09 100.458 246.497 99.911 249.854 100.33C253.212 100.749 256.381 102.117 258.994 104.275C261.606 106.433 263.553 109.291 264.609 112.517C265.665 115.743 265.785 119.204 264.956 122.496C264.127 125.788 262.383 128.775 259.928 131.111C257.472 133.446 254.405 135.033 251.085 135.686L249.781 129.013C251.841 128.608 253.744 127.624 255.268 126.175C256.791 124.726 257.873 122.872 258.387 120.83C258.902 118.787 258.827 116.64 258.172 114.639C257.517 112.638 256.309 110.864 254.688 109.525C253.067 108.187 251.101 107.338 249.018 107.078C246.935 106.818 244.821 107.157 242.923 108.057C241.025 108.956 239.421 110.378 238.297 112.158C237.174 113.937 236.577 116 236.577 118.107H229.802Z" fill="#EE6754"/>
<path d="M229.802 118.107C229.802 115.51 230.364 112.945 231.45 110.588C232.536 108.231 234.12 106.139 236.091 104.458C238.062 102.776 240.375 101.544 242.867 100.849C245.36 100.153 247.973 100.009 250.527 100.427C253.08 100.845 255.513 101.816 257.655 103.271C259.798 104.727 261.6 106.632 262.936 108.856C264.272 111.079 265.111 113.568 265.393 116.149C265.676 118.73 265.396 121.342 264.574 123.804L258.15 121.641C258.66 120.114 258.834 118.494 258.659 116.892C258.483 115.291 257.963 113.747 257.134 112.367C256.305 110.988 255.187 109.806 253.858 108.903C252.528 108 251.019 107.398 249.435 107.138C247.851 106.879 246.229 106.968 244.683 107.4C243.137 107.831 241.702 108.595 240.479 109.639C239.256 110.682 238.274 111.98 237.6 113.442C236.926 114.904 236.577 116.496 236.577 118.107H229.802Z" fill="#FDD79F"/>
<path d="M229.802 118.107C229.802 115.51 230.364 112.945 231.45 110.588C232.536 108.231 234.12 106.139 236.091 104.458C238.062 102.776 240.375 101.544 242.867 100.849C245.36 100.153 247.973 100.009 250.527 100.427C253.08 100.845 255.513 101.816 257.655 103.271C259.798 104.727 261.6 106.632 262.936 108.856C264.272 111.079 265.111 113.568 265.393 116.149C265.676 118.73 265.396 121.342 264.574 123.804L258.15 121.641C258.66 120.114 258.834 118.494 258.659 116.892C258.483 115.291 257.963 113.747 257.134 112.367C256.305 110.988 255.187 109.806 253.858 108.903C252.528 108 251.019 107.398 249.435 107.138C247.851 106.879 246.229 106.968 244.683 107.4C243.137 107.831 241.702 108.595 240.479 109.639C239.256 110.682 238.274 111.98 237.6 113.442C236.926 114.904 236.577 116.496 236.577 118.107H229.802Z" fill="#7DB5C4"/>
<path d="M229.802 118.107C229.802 115.251 230.482 112.437 231.786 109.899C233.089 107.361 234.978 105.173 237.296 103.516C239.613 101.859 242.292 100.783 245.108 100.376C247.924 99.969 250.796 100.244 253.485 101.177L251.27 107.603C249.602 107.024 247.82 106.854 246.073 107.106C244.326 107.359 242.664 108.027 241.227 109.055C239.789 110.082 238.617 111.44 237.808 113.015C236.999 114.589 236.577 116.335 236.577 118.107H229.802Z" fill="#FDD79F"/>
<path d="M229.802 118.107C229.802 115.251 230.482 112.437 231.786 109.899C233.089 107.361 234.978 105.173 237.296 103.516C239.613 101.859 242.292 100.783 245.108 100.376C247.924 99.969 250.796 100.244 253.485 101.177L251.27 107.603C249.602 107.024 247.82 106.854 246.073 107.106C244.326 107.359 242.664 108.027 241.227 109.055C239.789 110.082 238.617 111.44 237.808 113.015C236.999 114.589 236.577 116.335 236.577 118.107H229.802Z" fill="#FF546C"/>
<path d="M202.738 144.972C200.427 141.244 190.839 142.245 186.333 143.211C177.171 144.62 173.849 144.972 170.651 147.56C168.484 150.563 168.195 152.551 169.516 158.433C171.167 165.785 172.554 170.554 186.333 168.167C200.675 165.681 203.873 159.054 205.73 156.776C206.776 155.494 205.627 149.631 202.738 144.972Z" fill="#EA3F57"/>
<path d="M199.333 147.618C199.086 148.944 195.172 151.208 193.246 152.174L183.651 156.834C180.555 157.179 174.138 157.662 173.23 156.834C172.095 155.799 171.28 153.692 173.024 151.242C175.603 147.618 186.436 145.444 190.667 144.926C194.344 144.476 199.643 145.961 199.333 147.618Z" fill="#D62840"/>
<mask id="mask0" mask-type="alpha" maskUnits="userSpaceOnUse" x="168" y="142" width="39" height="27">
<path d="M202.738 144.972C200.427 141.244 190.839 142.245 186.333 143.211C177.171 144.62 173.849 144.972 170.651 147.56C168.484 150.563 168.195 152.551 169.516 158.433C171.167 165.785 172.554 170.554 186.333 168.167C200.675 165.681 203.873 159.054 205.73 156.776C206.776 155.494 205.627 149.631 202.738 144.972Z" fill="#EA3F57"/>
</mask>
<g mask="url(#mask0)">
<path d="M203.46 161.908C203.495 158.767 202.614 151.802 198.818 149.068M199.849 163.668C199.299 160.355 197.641 153.334 195.413 151.76M194.175 166.878C193.934 163.599 192.957 156.461 190.976 154.142M188.5 169.053C187.984 165.705 186.56 158.615 184.992 157.041M181.691 169.985C181.003 167.465 179.586 161.597 179.421 158.284M175.5 169.985C175.397 169.053 172.611 159.008 174.675 157.041M173.333 157.041C172.749 155.937 171.538 153.189 171.373 151.035C171.208 148.881 171.304 145.582 171.373 144.201M171.889 166.878C171.236 164.013 170.321 158.035 171.889 157.041M205.524 158.284C205.318 157.559 204.905 147.1 199.849 145.651C195.805 144.491 194.037 149.24 193.659 151.76M190.46 150.103C190.117 148.654 190.275 145.257 193.659 143.269C197.043 141.281 200.503 141.129 201.81 141.302M187.778 146.479L190.976 140.68M176.119 155.177C175.259 153.831 173.519 150.828 173.437 149.586C173.354 148.343 173.402 143.545 173.437 141.302" stroke="#AC1B2F" stroke-width="2"/>
</g>
<path d="M193.865 150.874C190.945 150.459 186.823 145.282 186.823 140.148C180.547 135.233 169.033 128.767 173.183 142.225C178.37 159.047 171.261 156.347 175.584 158.112C179.042 159.525 187.656 155.932 191.53 153.959C192.747 152.643 196.785 151.289 193.865 150.874Z" fill="#FFC2A0"/>
<mask id="mask1" mask-type="alpha" maskUnits="userSpaceOnUse" x="172" y="135" width="24" height="26">
<path d="M194.173 151.864C191.267 151.448 187.165 146.272 187.165 141.138C180.92 136.223 169.41 130.019 173.54 143.476C178.702 160.298 169.857 158.072 174.159 159.837C177.6 161.249 187.994 156.921 191.849 154.948C193.06 153.633 197.079 152.279 194.173 151.864Z" fill="#FFC2A0"/>
</mask>
<g mask="url(#mask1)">
<path d="M176.612 148.657C183.464 151.247 188.089 140.786 188.175 139.75H188.603C182.807 138.093 171.113 134.778 170.701 134.778C170.187 134.778 169.759 146.068 176.612 148.657Z" fill="#F29386"/>
</g>
<path d="M198.714 148.803C196.032 151.15 188.827 155.864 183.238 157.294C177.976 158.64 176.532 158.64 172.818 156.673" stroke="#AC1B2F" stroke-width="5" stroke-linecap="round"/>
<path d="M182.825 143.419C194.186 140.432 197.992 130.682 196.857 113.7C190.254 85.1209 170.41 91.0231 161.365 98.4786C160.299 101.93 157.937 114.354 160.746 126.437C164.357 141.969 174.159 145.697 182.825 143.419Z" fill="#FFC2A0"/>
<path d="M182.535 112.564C186.208 118.281 190.981 132.44 180.685 143.336C178.778 144.317 173.636 145.102 168.319 140.393C161.69 134.522 158.828 122.962 159.399 112.64C159.403 112.617 159.404 112.592 159.403 112.564C159.401 112.589 159.4 112.615 159.399 112.64C159.321 113.034 158.297 112.622 154.608 108.108C150.705 103.332 150.683 104.605 151.159 105.838C152.533 117.272 157.081 142.092 164.282 149.894C171.067 153.986 185.446 157.545 188.676 139.048C191.906 120.551 185.928 113.685 182.535 112.564Z" fill="#7E1B1B"/>
<path d="M161.701 143.255C159.391 133.669 158.478 117.976 158.309 110.378L155.702 106.258L153.262 119.29C155.788 126.399 159.464 136.796 161.701 143.255C162.075 144.808 162.486 146.2 162.936 147.372C164.381 151.133 163.512 148.484 161.701 143.255Z" fill="#5E1212"/>
<ellipse rx="1.54762" ry="3.00291" transform="matrix(-1 0 0 1 168.897 120.638)" fill="black"/>
<ellipse rx="1.75396" ry="3.4171" transform="matrix(-1 0 0 1 177.77 120.845)" fill="black"/>
<ellipse rx="3.71429" ry="2.17451" transform="matrix(-1 0 0 1 182.619 127.227)" fill="#F67E6D"/>
<ellipse rx="3.1984" ry="2.17451" transform="matrix(-1 0 0 1 164.563 127.227)" fill="#F67E6D"/>
<path d="M172.302 124.262C171.717 125.746 170.154 127.696 168.897 128.508C167.452 129.44 169.619 130.786 170.96 131.303" stroke="#E58574" stroke-width="2.5" stroke-linecap="round"/>
<path d="M181.69 114.218C180.796 113.286 178.182 111.609 174.881 112.354M168.175 112.354C166.765 112.112 163.8 112.147 163.222 114.218" stroke="black" stroke-width="2" stroke-linecap="round"/>
<g filter="url(#filter0_i)">
<path d="M134.127 194.468C142.381 191.817 145.27 200.957 145.683 205.858L129.175 203.994C127.386 201.923 125.873 197.119 134.127 194.468Z" fill="#FFBF9C"/>
</g>
<ellipse rx="2.47619" ry="2.38161" transform="matrix(-1 0 0 1 176.976 137.375)" fill="#BB2036"/>
<mask id="mask2" mask-type="alpha" maskUnits="userSpaceOnUse" x="174" y="134" width="6" height="6">
<ellipse rx="2.47619" ry="2.38161" transform="matrix(-1 0 0 1 176.976 137.375)" fill="#BB2036"/>
</mask>
<g mask="url(#mask2)">
<path d="M172.23 134.165V137.478L176.153 136.159C176.426 136.067 176.707 135.999 176.991 135.955L181.929 135.2V131.68L172.23 134.165Z" fill="#FFFBFB"/>
</g>
<g filter="url(#filter1_i)">
<rect width="97.6032" height="4.14191" rx="2.07095" transform="matrix(-1 0 0 1 166.524 204.616)" fill="#357290"/>
</g>
<g filter="url(#filter2_i)">
<path d="M121.358 156.369C119.878 152.499 116.163 149.942 112.018 149.942H56.0055C48.673 149.942 43.8339 157.572 46.9597 164.205L68.1504 209.172H141.556L121.358 156.369Z" fill="#7DB5C4"/>
</g>
<mask id="mask3" mask-type="alpha" maskUnits="userSpaceOnUse" x="45" y="149" width="97" height="61">
<path d="M121.358 156.369C119.878 152.499 116.163 149.942 112.018 149.942H56.0055C48.673 149.942 43.8339 157.572 46.9597 164.205L68.1504 209.172H141.556L121.358 156.369Z" fill="#7DB5C4"/>
</mask>
<g mask="url(#mask3)">
<path d="M81.3017 188.631L113.492 152.596L41.27 128.159L21.8731 155.91L61.0795 213.897L81.3017 188.631Z" fill="#64A6C0"/>
</g>
<mask id="mask4" mask-type="alpha" maskUnits="userSpaceOnUse" x="45" y="149" width="97" height="61">
<path d="M121.358 156.369C119.878 152.499 116.163 149.942 112.018 149.942H56.0055C48.673 149.942 43.8339 157.572 46.9597 164.205L68.1504 209.172H141.556L121.358 156.369Z" fill="#7DB5C4"/>
</mask>
<g mask="url(#mask4)">
<path d="M113.08 153.839L137.429 210.169L147.643 205.295L140.73 138.1H27.651V151.768L113.08 153.839Z" fill="#163D56"/>
</g>
<g filter="url(#filter3_d)">
<ellipse rx="3.30159" ry="3.31354" transform="matrix(-1 0 0 1 87.4921 179.764)" fill="#133B54"/>
</g>
<rect width="42.9206" height="26.9225" rx="13.4613" transform="matrix(-1 0 0 1 122.913 106.613)" fill="#FED085"/>
<path d="M87.6155 113.478L89.9704 110.751C90.0211 110.693 89.9918 110.601 89.9166 110.583L86.5086 109.761C86.3501 109.723 86.2122 109.876 86.2654 110.03L87.44 113.444C87.466 113.519 87.5635 113.538 87.6155 113.478Z" fill="white"/>
<path fill-rule="evenodd" clip-rule="evenodd" d="M86.653 109.157C86.0191 109.005 85.4672 109.615 85.6801 110.233L86.8547 113.646C87.0363 114.174 87.7188 114.306 88.0831 113.885L88.7971 113.058L96.7329 120.11C97.7018 120.971 99.1451 121.015 100.164 120.215L104.56 116.763C104.744 116.618 104.994 116.59 105.206 116.691L119.308 123.381L119.837 122.258L105.735 115.567C105.1 115.266 104.35 115.35 103.797 115.784L99.4013 119.236C98.8525 119.667 98.0754 119.643 97.5536 119.18L89.6081 112.119L90.438 111.158C90.7928 110.748 90.5876 110.106 90.0609 109.979L86.653 109.157ZM86.3644 110.366L86.3639 110.366L86.4602 109.963L86.3639 110.366C86.3641 110.366 86.3642 110.366 86.3644 110.366ZM86.8503 109.828L86.8508 109.829C86.8506 109.828 86.8505 109.828 86.8503 109.828ZM87.0962 110.542L88.9465 110.988L87.7331 112.393L87.0962 110.542Z" fill="white"/>
<rect width="2.88891" height="6.21291" rx="1.44445" transform="matrix(-1 0 0 1 117.961 124.009)" fill="white"/>
<rect width="2.68254" height="9.11224" rx="1.34127" transform="matrix(-1 0 0 1 111.977 121.11)" fill="white"/>
<rect width="2.88889" height="11.1832" rx="1.44445" transform="matrix(-1 0 0 1 106.199 119.039)" fill="white"/>
<rect width="2.68253" height="7.45548" rx="1.34126" transform="matrix(-1 0 0 1 100.215 122.767)" fill="white"/>
<rect width="2.88889" height="11.1832" rx="1.44445" transform="matrix(-1 0 0 1 94.437 119.039)" fill="white"/>
<rect width="2.6825" height="14.7039" rx="1.34125" transform="matrix(-1 0 0 1 88.4526 115.518)" fill="white"/>
<path fill-rule="evenodd" clip-rule="evenodd" d="M182.234 63.33C174.2 63.33 167.687 56.7932 167.687 48.7297C167.687 40.6662 174.2 34.1294 182.234 34.1294C190.269 34.1294 196.782 40.6662 196.782 48.7297C196.782 56.7932 190.269 63.33 182.234 63.33ZM182.234 66.4364C172.49 66.4364 164.591 58.5088 164.591 48.7297C164.591 38.9505 172.49 31.0229 182.234 31.0229C191.978 31.0229 199.877 38.9505 199.877 48.7297C199.877 58.5088 191.978 66.4364 182.234 66.4364Z" fill="#163D56"/>
<path d="M213.25 74.108L195.466 58.9629L191.17 60.6898C195.922 65.3393 206.407 73.9769 208.973 76.1659C211.414 78.247 214.221 77.4134 213.25 74.108Z" fill="#163D56"/>
<rect width="8.2544" height="19.4661" rx="4.1272" transform="matrix(-0.993106 0.117218 0.116385 0.993204 253.743 172.056)" fill="#4A4A4A"/>
<mask id="mask5" mask-type="alpha" maskUnits="userSpaceOnUse" x="245" y="172" width="11" height="20">
<rect width="8.25436" height="19.4661" rx="4.12718" transform="matrix(-0.993106 0.117218 0.116385 0.993204 253.743 172.056)" fill="#4A4A4A"/>
</mask>
<g mask="url(#mask5)">
<path d="M246 177.751C250.85 178.372 254.977 176.198 255.596 175.576C255.596 180.754 255.513 191.233 255.183 191.73C254.853 192.227 249.474 191.73 246.826 191.419C244.934 186.656 242.121 177.254 246 177.751Z" fill="#C4C4C4"/>
</g>
<mask id="mask6" mask-type="alpha" maskUnits="userSpaceOnUse" x="244" y="175" width="12" height="17">
<path d="M246 177.751C250.849 178.372 254.976 176.198 255.595 175.576C255.595 180.754 255.513 191.233 255.183 191.73C254.853 192.227 249.474 191.73 246.826 191.419C244.934 186.656 242.121 177.254 246 177.751Z" fill="#C4C4C4"/>
</mask>
<g mask="url(#mask6)">
<mask id="mask7" mask-type="alpha" maskUnits="userSpaceOnUse" x="245" y="175" width="11" height="17">
<path d="M246 177.751C250.69 176.366 254.976 176.198 255.595 175.576C255.595 180.754 255.513 191.233 255.183 191.73C254.853 192.227 249.474 191.73 246.826 191.419C248.373 186.863 244.246 178.268 246 177.751Z" fill="#C4C4C4"/>
</mask>
<g mask="url(#mask7)">
<rect width="3.71453" height="18.8445" transform="matrix(-0.990599 0.1368 0.135833 0.990732 248.521 175.203)" fill="#929292"/>
</g>
</g>
<rect width="7.63493" height="43.6973" transform="matrix(-1 0 0 1 259.723 161.287)" fill="#FFBE5F"/>
<mask id="mask8" mask-type="alpha" maskUnits="userSpaceOnUse" x="252" y="161" width="8" height="44">
<rect width="7.63493" height="43.6973" transform="matrix(-1 0 0 1 259.723 161.287)" fill="#FFBE5F"/>
</mask>
<g mask="url(#mask8)">
<path d="M253.429 163.772C253.677 162.032 257.934 161.804 260.032 161.908L260.342 159.216L250.54 159.526L250.334 196.907L254.255 198.357C253.876 187.553 253.182 165.511 253.429 163.772Z" fill="#F5A836"/>
</g>
<path d="M256.008 162.529H252.088V162.943H256.008V162.529Z" fill="#972D00"/>
<path d="M256.008 162.529H252.088V162.943H256.008V162.529Z" fill="#972D00"/>
<path d="M256.008 162.529H252.088V162.943H256.008V162.529Z" fill="#972D00"/>
<path d="M254.151 163.772H252.088V164.186H254.151V163.772Z" fill="#972D00"/>
<path d="M254.151 163.772H252.088V164.186H254.151V163.772Z" fill="#972D00"/>
<path d="M254.151 163.772H252.088V164.186H254.151V163.772Z" fill="#972D00"/>
<path d="M254.151 165.014H252.088V165.428H254.151V165.014Z" fill="#972D00"/>
<path d="M254.151 165.014H252.088V165.428H254.151V165.014Z" fill="#972D00"/>
<path d="M254.151 165.014H252.088V165.428H254.151V165.014Z" fill="#972D00"/>
<path d="M256.008 166.464H252.088V166.878H256.008V166.464Z" fill="#972D00"/>
<path d="M256.008 166.464H252.088V166.878H256.008V166.464Z" fill="#972D00"/>
<path d="M256.008 166.464H252.088V166.878H256.008V166.464Z" fill="#972D00"/>
<path d="M254.151 167.707H252.088V168.121H254.151V167.707Z" fill="#972D00"/>
<path d="M254.151 167.707H252.088V168.121H254.151V167.707Z" fill="#972D00"/>
<path d="M254.151 167.707H252.088V168.121H254.151V167.707Z" fill="#972D00"/>
<path d="M254.151 168.949H252.088V169.363H254.151V168.949Z" fill="#972D00"/>
<path d="M254.151 168.949H252.088V169.363H254.151V168.949Z" fill="#972D00"/>
<path d="M254.151 168.949H252.088V169.363H254.151V168.949Z" fill="#972D00"/>
<path d="M256.008 170.399H252.088V170.813H256.008V170.399Z" fill="#972D00"/>
<path d="M256.008 170.399H252.088V170.813H256.008V170.399Z" fill="#972D00"/>
<path d="M256.008 170.399H252.088V170.813H256.008V170.399Z" fill="#972D00"/>
<path d="M254.151 171.641H252.088V172.056H254.151V171.641Z" fill="#972D00"/>
<path d="M254.151 171.641H252.088V172.056H254.151V171.641Z" fill="#972D00"/>
<path d="M254.151 171.641H252.088V172.056H254.151V171.641Z" fill="#972D00"/>
<path d="M254.151 172.884H252.088V173.298H254.151V172.884Z" fill="#972D00"/>
<path d="M254.151 172.884H252.088V173.298H254.151V172.884Z" fill="#972D00"/>
<path d="M254.151 172.884H252.088V173.298H254.151V172.884Z" fill="#972D00"/>
<path d="M256.008 174.334H252.088V174.748H256.008V174.334Z" fill="#972D00"/>
<path d="M256.008 174.334H252.088V174.748H256.008V174.334Z" fill="#972D00"/>
<path d="M256.008 174.334H252.088V174.748H256.008V174.334Z" fill="#972D00"/>
<path d="M254.151 175.576H252.088V175.99H254.151V175.576Z" fill="#972D00"/>
<path d="M254.151 175.576H252.088V175.99H254.151V175.576Z" fill="#972D00"/>
<path d="M254.151 175.576H252.088V175.99H254.151V175.576Z" fill="#972D00"/>
<path d="M254.151 176.819H252.088V177.233H254.151V176.819Z" fill="#972D00"/>
<path d="M254.151 176.819H252.088V177.233H254.151V176.819Z" fill="#972D00"/>
<path d="M254.151 176.819H252.088V177.233H254.151V176.819Z" fill="#972D00"/>
<path d="M256.008 178.268H252.088V178.683H256.008V178.268Z" fill="#972D00"/>
<path d="M256.008 178.268H252.088V178.683H256.008V178.268Z" fill="#972D00"/>
<path d="M256.008 178.268H252.088V178.683H256.008V178.268Z" fill="#972D00"/>
<path d="M254.151 179.511H252.088V179.925H254.151V179.511Z" fill="#972D00"/>
<path d="M254.151 179.511H252.088V179.925H254.151V179.511Z" fill="#972D00"/>
<path d="M254.151 179.511H252.088V179.925H254.151V179.511Z" fill="#972D00"/>
<path d="M254.151 180.754H252.088V181.168H254.151V180.754Z" fill="#972D00"/>
<path d="M254.151 180.754H252.088V181.168H254.151V180.754Z" fill="#972D00"/>
<path d="M254.151 180.754H252.088V181.168H254.151V180.754Z" fill="#972D00"/>
<path d="M256.008 182.203H252.088V182.617H256.008V182.203Z" fill="#972D00"/>
<path d="M256.008 182.203H252.088V182.617H256.008V182.203Z" fill="#972D00"/>
<path d="M256.008 182.203H252.088V182.617H256.008V182.203Z" fill="#972D00"/>
<path d="M254.151 183.446H252.088V183.86H254.151V183.446Z" fill="#972D00"/>
<path d="M254.151 183.446H252.088V183.86H254.151V183.446Z" fill="#972D00"/>
<path d="M254.151 183.446H252.088V183.86H254.151V183.446Z" fill="#972D00"/>
<path d="M254.151 184.688H252.088V185.103H254.151V184.688Z" fill="#972D00"/>
<path d="M254.151 184.688H252.088V185.103H254.151V184.688Z" fill="#972D00"/>
<path d="M254.151 184.688H252.088V185.103H254.151V184.688Z" fill="#972D00"/>
<rect width="2.06356" height="36.4477" transform="matrix(-0.995099 0.0988817 0.0981758 0.995169 246.033 167.914)" fill="#EE6754"/>
<ellipse rx="1.03178" ry="0.414182" transform="matrix(-0.996154 0.0876174 0.0869919 0.996209 245.039 168.002)" fill="#B33C2C"/>
<rect width="2.05327" height="36.9482" transform="matrix(-0.952552 -0.320305 -0.312274 0.935392 264.13 173.279)" fill="#FF546C"/>
<ellipse rx="1.02807" ry="0.41949" transform="matrix(-0.94788 -0.330649 -0.323152 0.932766 263.188 172.952)" fill="#C8374B"/>
<path d="M264.262 183.86H242.389L246.646 209.54H259.858L264.262 183.86Z" fill="#7DB5C4"/>
<mask id="mask9" mask-type="alpha" maskUnits="userSpaceOnUse" x="242" y="183" width="23" height="27">
<path d="M264.262 183.86H242.389L246.646 209.54H259.858L264.262 183.86Z" fill="#7DB5C4"/>
</mask>
<g mask="url(#mask9)">
<path d="M251.344 215.479L246.059 181.774L234.022 182.576L240.334 213.553L251.344 215.479Z" fill="#64A6C0"/>
</g>
<mask id="mask10" mask-type="alpha" maskUnits="userSpaceOnUse" x="242" y="183" width="23" height="27">
<path d="M264.262 183.86H242.389L246.646 209.54H259.858L264.262 183.86Z" fill="#7DB5C4"/>
</mask>
<g mask="url(#mask10)">
<path fill-rule="evenodd" clip-rule="evenodd" d="M239.16 192.242H266.464V191.207H239.16V192.242ZM239.16 196.576H264.996V195.54H239.16V196.576Z" fill="white"/>
</g>
<path fill-rule="evenodd" clip-rule="evenodd" d="M274.58 209.482C274.58 209.196 274.349 208.965 274.064 208.965H31.6037C31.3187 208.965 31.0878 209.196 31.0878 209.482C31.0878 209.768 31.3187 210 31.6037 210H274.064C274.349 210 274.58 209.768 274.58 209.482Z" fill="#0E374B"/>
<path fill-rule="evenodd" clip-rule="evenodd" d="M79.5002 2.44728C80.6912 2.04633 81.9276 1.77572 83.2072 1.64873L83.0447 0C81.6392 0.139487 80.2813 0.436828 78.9752 0.876518L79.5002 2.44728ZM87.0077 1.69149C87.6276 1.76473 88.2571 1.87052 88.8959 2.01041C89.3413 2.10793 89.7811 1.82463 89.8783 1.37764C89.9755 0.930655 89.6932 0.489239 89.2478 0.391714C88.5577 0.240585 87.8751 0.125757 87.2006 0.0460749L87.0077 1.69149ZM72.9348 6.2939C73.9244 5.4361 74.9611 4.68158 76.0415 4.04174L75.2026 2.61485C74.0309 3.3087 72.9145 4.12235 71.8558 5.04003L72.9348 6.2939ZM67.874 12.1508C68.6089 11.0445 69.3898 10.0056 70.2142 9.04368L68.9626 7.96333C68.0914 8.98002 67.2701 10.0733 66.5005 11.2317L67.874 12.1508ZM64.2233 19.0664C64.7341 17.8391 65.2892 16.6524 65.8868 15.5144L64.4265 14.742C63.8048 15.9257 63.2288 17.1572 62.7 18.4279L64.2233 19.0664ZM61.7823 26.5423C62.0983 25.2565 62.4581 23.9922 62.8601 22.7568L61.2909 22.2425C60.876 23.5176 60.5051 24.821 60.1795 26.1455L61.7823 26.5423ZM60.4395 34.3064C60.5743 32.9955 60.7539 31.6911 60.9769 30.4L59.3504 30.117C59.1209 31.4456 58.9361 32.7877 58.7975 34.1364L60.4395 34.3064ZM60.1795 42.1796C60.1297 40.8714 60.1275 39.5557 60.1715 38.2394L58.5217 38.1838C58.4764 39.5389 58.4786 40.8942 58.5299 42.2428L60.1795 42.1796ZM61.0796 49.9899C60.8266 48.7149 60.6259 47.4174 60.476 46.1045L58.8359 46.2931C58.9908 47.6495 59.1984 48.9921 59.4606 50.3134L61.0796 49.9899ZM62.6126 55.6602C62.3987 55.0482 62.199 54.4271 62.0135 53.7981L60.4305 54.2683C60.6236 54.923 60.8317 55.5702 61.055 56.2088C61.285 56.8669 61.5188 57.4921 61.7557 58.0855L63.288 57.4692C63.0606 56.8995 62.8352 56.297 62.6126 55.6602ZM73.2 55.6355C74.5838 55.7396 75.4101 56.2802 75.8887 56.9771L77.2479 56.0368C76.4436 54.8658 75.126 54.119 73.3234 53.9834L73.2 55.6355ZM67.91 56.7069C68.5351 56.4636 69.1204 56.2655 69.6673 56.1083L69.2128 54.5155C68.613 54.688 67.9802 54.9026 67.3132 55.1622C66.6421 55.4233 65.9954 55.7308 65.3735 56.0814L66.1819 57.5259C66.737 57.213 67.313 56.9392 67.91 56.7069ZM60.6359 62.8315C61.3876 61.7175 62.2149 60.7148 63.1159 59.8391L61.9675 58.649C60.9771 59.6116 60.078 60.7037 59.269 61.9024L60.6359 62.8315ZM76.4414 60.1138C76.2889 61.2217 75.8586 62.3784 75.2194 63.3846L76.6113 64.2753C77.3711 63.0794 77.8898 61.6979 78.0767 60.3406L76.4414 60.1138ZM66.9503 63.9084C66.2679 63.1402 65.5714 62.1458 64.8776 60.8828L63.4319 61.6827C64.1729 63.0316 64.938 64.1327 65.718 65.0109L66.9503 63.9084ZM57.2863 69.9534C57.6999 68.6567 58.177 67.4207 58.7165 66.2581L57.2201 65.5586C56.6489 66.7894 56.1471 68.0907 55.7141 69.4483L57.2863 69.9534ZM72.776 65.7228C71.8393 66.1953 70.7993 66.321 69.6917 65.924L69.1365 67.4842C70.7081 68.0476 72.2161 67.8594 73.5173 67.2031L72.776 65.7228ZM55.642 77.7542C55.7996 76.4091 56.0116 75.0927 56.2776 73.8152L54.6617 73.4763C54.3853 74.8042 54.1656 76.1691 54.0025 77.5607L55.642 77.7542ZM55.34 85.7583C55.2893 84.4125 55.2884 83.0741 55.3371 81.7518L53.6874 81.6906C53.6372 83.0547 53.6381 84.4345 53.6904 85.821L55.34 85.7583ZM56.2211 93.7279C55.978 92.4128 55.7832 91.0876 55.6365 89.7606L53.9958 89.9433C54.1468 91.3099 54.3475 92.675 54.5981 94.0301L56.2211 93.7279ZM58.2732 101.466C57.8319 100.215 57.4397 98.9364 57.0966 97.6383L55.501 98.063C55.8551 99.4028 56.2603 100.724 56.7171 102.019L58.2732 101.466ZM61.5945 108.712C60.9328 107.577 60.3229 106.393 59.7649 105.171L58.264 105.86C58.8436 107.131 59.4787 108.363 60.1698 109.549L61.5945 108.712ZM66.3488 115.032C65.4374 114.099 64.5815 113.093 63.7815 112.023L62.4613 113.018C63.3021 114.142 64.2049 115.204 65.1701 116.192L66.3488 115.032ZM72.6054 119.736C71.4442 119.129 70.3413 118.426 69.2964 117.637L68.3035 118.96C69.4182 119.802 70.5981 120.555 71.8434 121.205L72.6054 119.736ZM78.1094 121.751C77.4633 121.606 76.8315 121.435 76.2139 121.239L75.7158 122.818C76.3787 123.029 77.0563 123.212 77.7487 123.368L78.1094 121.751Z" fill="#FFBA55"/>
<path d="M152.363 116.271C152.149 112.755 151.937 109.544 151.748 106.847C151.45 109.797 151.707 112.993 152.363 116.271C153.42 133.616 154.55 158.374 153.431 165.364C152.085 173.772 159.207 171.726 162.936 169.652C164.618 169.876 168.269 170.997 169.413 173.688C170.843 177.051 174.376 178.901 179.423 173.688C183.461 169.518 184.919 154.799 185.143 147.96C182.591 149.866 176.344 153.106 171.768 150.819C167.062 148.467 155.409 131.488 152.363 116.271Z" fill="#5E1212"/>
<path d="M151.531 105.589C151.524 104.017 151.512 102.525 151.496 101.129C151.297 102.298 151.321 103.808 151.531 105.589C151.629 128.584 150.626 168.759 145.776 175.369C140.594 182.432 155.393 180.05 163.441 177.976L173.198 181.087C176.03 181.619 182.3 181.742 184.722 177.976C187.145 174.209 178.049 167.83 173.198 165.112C166.14 150.008 153.168 119.494 151.531 105.589Z" fill="#5E1212"/>
<path d="M175.434 143.941C171.626 143.632 163.271 139.25 160.314 124.196C161.434 131.453 166.026 145.562 175.434 143.941Z" fill="#3E1212"/>
<path d="M159.071 178.759L160.859 148.417C162.619 157.745 165.696 176.686 163.925 177.832C162.154 178.978 159.951 178.928 159.071 178.759Z" fill="#3E1212"/>
<path d="M180.405 155.87L183.094 179.397C183.194 180.277 181.343 180.779 180.405 180.92V155.87Z" fill="#3E1212"/>
<path d="M192.596 138.416C194.352 146.211 201.77 165.518 205.26 174.197C198.776 172.316 196.029 176.101 195.466 178.229L189.725 132.705C189.951 131.361 190.84 130.622 192.596 138.416Z" fill="#3E1212"/>
<path d="M174.407 151.095C186.191 147.383 187.896 132.167 187.275 125.024C188.658 132.28 189.679 147.889 182.703 152.276C175.728 156.664 174.266 153.317 174.407 151.095Z" fill="#3E1212"/>
<path d="M167.38 109.883C175.975 108.473 184.616 113.436 187.861 116.094L178.292 98.3848L169.562 93.3491L156.971 98.3848C155.012 100.931 150.759 103.085 151.767 108.288C152.305 111.069 153.334 117.604 154.873 118.192C154.671 116.379 164.638 110.443 167.38 109.883Z" fill="#5E1212"/>
<path d="M158.918 117.778C158.104 113.513 165.585 106.781 169.427 103.949C167.122 103.483 163.099 107.031 161.376 108.864C157.782 113.196 158.24 116.612 158.918 117.778Z" fill="#3E1212"/>
<path d="M195.058 150.137C192.603 146.344 182.42 147.362 177.635 148.346C167.905 149.779 164.376 150.137 160.979 152.771C158.678 155.827 158.372 157.85 159.774 163.835C161.527 171.316 163 176.169 177.635 173.739C192.866 171.211 196.263 164.467 198.236 162.149C199.346 160.844 198.126 154.879 195.058 150.137Z" fill="#EA3F57"/>
<path d="M191.442 152.83C191.179 154.179 187.022 156.483 184.977 157.466L174.786 162.208C171.499 162.559 164.683 163.051 163.719 162.208C162.513 161.154 161.648 159.01 163.5 156.518C166.239 152.83 177.745 150.617 182.237 150.09C186.143 149.632 191.771 151.144 191.442 152.83Z" fill="#D62840"/>
<mask id="mask11" mask-type="alpha" maskUnits="userSpaceOnUse" x="158" y="147" width="41" height="28">
<path d="M195.058 150.137C192.603 146.344 182.42 147.362 177.635 148.346C167.905 149.779 164.376 150.137 160.979 152.771C158.678 155.827 158.372 157.85 159.774 163.835C161.527 171.316 163 176.169 177.635 173.739C192.866 171.211 196.263 164.467 198.236 162.149C199.346 160.844 198.126 154.879 195.058 150.137Z" fill="#EA3F57"/>
</mask>
<g mask="url(#mask11)">
<path d="M195.825 167.371C195.862 164.175 194.927 157.087 190.894 154.305M191.99 169.162C191.405 165.79 189.645 158.646 187.278 157.045M185.963 172.428C185.707 169.092 184.67 161.828 182.566 159.468M179.936 174.641C179.388 171.234 177.876 164.02 176.211 162.418M172.704 175.589C171.974 173.025 170.469 167.055 170.294 163.683M166.13 175.589C166.02 174.641 163.062 164.42 165.253 162.418M163.829 162.418C163.208 161.294 161.922 158.499 161.747 156.307C161.571 154.115 161.674 150.758 161.747 149.353M162.294 172.428C161.6 169.513 160.629 163.43 162.294 162.418M198.017 163.683C197.797 162.945 197.359 152.303 191.99 150.828C187.694 149.648 185.817 154.481 185.415 157.045M182.018 155.359C181.653 153.884 181.821 150.428 185.415 148.404C189.009 146.381 192.684 146.227 194.072 146.402M179.169 151.671L182.566 145.77M166.787 160.522C165.874 159.152 164.026 156.096 163.938 154.832C163.85 153.567 163.902 148.685 163.938 146.402" stroke="#AC1B2F" stroke-width="2"/>
</g>
<path d="M185.634 156.143C182.533 155.72 178.156 150.453 178.156 145.229C171.49 140.227 159.261 133.648 163.668 147.342C169.178 164.459 161.628 161.712 166.219 163.508C169.892 164.946 179.04 161.29 183.155 159.282C184.447 157.944 188.736 156.566 185.634 156.143Z" fill="#FFC2A0"/>
<mask id="mask12" mask-type="alpha" maskUnits="userSpaceOnUse" x="163" y="140" width="25" height="26">
<path d="M185.961 157.15C182.875 156.727 178.519 151.46 178.519 146.236C171.886 141.234 159.662 134.921 164.048 148.615C169.53 165.733 160.136 163.467 164.705 165.263C168.36 166.7 179.399 162.297 183.494 160.289C184.78 158.951 189.047 157.573 185.961 157.15Z" fill="#FFC2A0"/>
</mask>
<g mask="url(#mask12)">
<path d="M167.31 153.887C174.588 156.522 179.5 145.877 179.591 144.823H180.046C173.89 143.137 161.47 139.764 161.033 139.764C160.488 139.764 160.033 151.252 167.31 153.887Z" fill="#F29386"/>
</g>
<path d="M190.784 154.036C187.935 156.424 180.284 161.221 174.348 162.676C168.759 164.046 167.225 164.046 163.281 162.044" stroke="#AC1B2F" stroke-width="5" stroke-linecap="round"/>
<path d="M173.909 148.556C185.975 145.518 190.017 135.596 188.812 118.316C181.799 89.2344 160.724 95.2403 151.118 102.827C149.985 106.339 147.477 118.981 150.46 131.276C154.295 147.081 164.705 150.875 173.909 148.556Z" fill="#FFC2A0"/>
<ellipse rx="1.64365" ry="3.05568" transform="matrix(-1 0 0 1 159.117 125.376)" fill="black"/>
<ellipse rx="1.86281" ry="3.47715" transform="matrix(-1 0 0 1 168.54 125.586)" fill="black"/>
<ellipse rx="3.94478" ry="2.21271" transform="matrix(-1 0 0 1 173.69 132.08)" fill="#F67E6D"/>
<ellipse rx="3.39689" ry="2.21272" transform="matrix(-1 0 0 1 154.514 132.08)" fill="#F67E6D"/>
<path d="M162.733 129.063C162.112 130.574 160.452 132.558 159.117 133.384C157.583 134.332 159.884 135.702 161.308 136.228" stroke="#E58574" stroke-width="2.5" stroke-linecap="round"/>
<path d="M172.704 118.843C171.754 117.894 168.978 116.188 165.472 116.946M158.349 116.946C156.852 116.7 153.703 116.735 153.09 118.843" stroke="black" stroke-width="2" stroke-linecap="round"/>
<path d="M195.387 123.268C193.37 120.318 189.616 121.969 188.593 124.006C186.511 139.916 186.073 137.493 189.908 135.28C193.71 133.087 197.907 126.956 195.387 123.268Z" fill="#FFC2A0"/>
<path d="M188.922 127.752C190.127 125.75 192.713 122.505 193.414 125.54C193.749 126.99 193.347 128.456 192.656 129.649M192.656 129.649C191.539 131.575 189.666 132.788 188.922 132.073C187.716 130.913 190.582 129.228 192.656 129.649Z" stroke="#E17C6E" stroke-width="3"/>
<ellipse rx="2.62984" ry="2.42347" transform="matrix(-1 0 0 1 167.698 142.406)" fill="#BB2036"/>
<mask id="mask13" mask-type="alpha" maskUnits="userSpaceOnUse" x="165" y="139" width="6" height="6">
<ellipse rx="2.62984" ry="2.42347" transform="matrix(-1 0 0 1 167.698 142.406)" fill="#BB2036"/>
</mask>
<g mask="url(#mask13)">
<path d="M162.657 139.14V142.512L166.863 141.156C167.127 141.071 167.397 141.008 167.672 140.968L172.958 140.194V136.611L162.657 139.14Z" fill="#FFFBFB"/>
</g>
<path d="M169.905 103.422C165.36 101.302 154.63 111.623 149.833 117.049C150.59 114.777 162.331 100.015 164.603 100.393C166.421 100.696 168.895 102.538 169.905 103.422Z" fill="#A65A5A"/>
<path d="M193.535 194.185C188.991 191.763 178.261 191.157 173.464 191.157C173.464 194.185 172.201 198.728 171.57 200.62C174.978 205.541 190.884 210.462 198.459 208.948C204.518 207.737 204.518 202.134 203.761 199.485L193.535 194.185Z" fill="#C4C4C4"/>
<path d="M153.999 112.885C150.212 116.796 145.894 128.632 158.922 144.681C151.348 137.994 139.759 122.272 153.999 112.885Z" fill="#A65A5A"/>
<path d="M164.982 101.529C158.165 104.557 151.853 113.642 149.454 118.184C142.486 84.2681 172.935 81.8455 182.024 87.5234L193.006 101.529C195.657 109.604 198.99 130.221 201.717 135.975C205.125 143.167 213.835 188.212 208.155 198.054C203.61 205.927 184.548 201.334 175.586 198.054L180.887 177.235C181.645 175.216 182.251 170.8 178.615 169.286C174.98 167.772 173.313 154.775 172.935 148.467C188.462 140.517 181.266 121.213 178.615 113.642C176.494 107.585 168.769 103.295 164.982 101.529Z" fill="#5E1212"/>
<path d="M161.573 87.1449L164.603 101.908C160.058 102.816 152.61 111.875 149.454 116.292C147.939 141.426 162.331 148.088 169.526 148.467L170.284 149.602L173.692 158.687L181.266 169.664L178.994 182.156L171.798 195.783C169.779 196.918 165.512 199.189 164.603 199.189C163.694 199.189 152.863 197.675 147.561 196.918C146.298 195.656 143.471 192.906 142.259 191.997C141.047 191.089 140.491 186.319 140.365 184.048C141.249 182.534 143.168 179.203 143.774 177.992C144.38 176.781 145.541 171.935 146.046 169.664C147.056 168.024 149.151 164.289 149.454 162.472C149.757 160.655 148.318 148.34 147.561 142.41C139.078 106.677 153.368 90.6778 161.573 87.1449Z" fill="#5E1212"/>
<path d="M179.751 86.3879C160.967 80.3314 151.979 92.949 149.833 100.015C158.922 90.9302 163.088 89.7946 166.496 89.7946C181.645 89.7946 192.88 104.179 196.036 115.913C196.036 96.9867 184.927 89.2899 179.751 86.3879Z" fill="#360909"/>
<path d="M165.739 101.529C159.377 103.043 151.727 113.642 149.076 118.941C156.65 100.393 167.633 97.7437 167.254 99.2578C166.951 100.469 166.37 101.403 165.739 101.529Z" fill="#360909"/>
<path d="M149.454 126.133C149.151 122.197 150.086 117.175 150.591 115.156V114.778C147.864 118.714 148.697 123.988 149.454 126.133Z" fill="#5E1212"/>
<path d="M184.675 151.495C192.552 137.565 195.531 122.222 196.036 116.292C196.036 112.355 195.026 106.828 194.521 104.557C193.637 101.908 192.476 98.3494 194.9 105.314C197.324 112.279 199.192 125.124 199.823 130.676C191.34 150.359 177.858 164.112 172.177 168.529L184.675 151.495Z" fill="#360909"/>
<path d="M169.526 149.981C175.888 149.678 182.402 138.625 182.402 135.597C184.206 131.433 180.509 119.32 182.402 123.105C183.917 126.133 184.548 132.821 184.296 135.597C181.569 147.71 173.313 150.233 169.526 149.981Z" fill="#360909"/>
<path d="M173.692 148.088C170.965 149.299 164.981 147.583 162.33 146.574L161.952 146.195C164.603 149.981 169.905 157.627 169.905 157.93C169.905 158.233 173.439 159.57 175.207 160.201L176.343 156.416C176.595 153.135 176.418 146.877 173.692 148.088Z" fill="#5E1212"/>
<path d="M175.586 158.308C164.982 162.245 151.222 142.536 145.667 132.19C145.667 137.035 147.94 146.069 149.076 149.981C157.862 164.213 170.41 161.463 175.586 158.308Z" fill="#360909"/>
<path d="M137.336 184.427C140.365 179.582 146.425 161.463 149.076 153.009L165.36 181.777L178.615 169.664C180.887 168.15 184.902 166.409 182.781 171.557C180.13 177.992 178.615 188.969 171.42 195.026C164.224 201.082 152.863 198.432 147.182 196.918C141.501 195.404 133.548 190.483 137.336 184.427Z" fill="#5E1212"/>
<path d="M149.833 197.675C157.281 199.063 173.995 196.767 181.266 176.478C180.004 187.203 171.95 206.457 149.833 197.675Z" fill="#360909"/>
<path d="M190.355 201.461C210.654 206.911 210.174 175.973 207.397 159.822C211.563 177.992 211.942 197.675 205.504 201.461C200.353 204.489 193.259 202.722 190.355 201.461Z" fill="#360909"/>
<path d="M177.629 191.157L173.085 190.779C173.464 194.564 171.191 199.863 171.949 200.999C172.555 201.907 175.483 201.377 176.872 200.999L177.629 191.157Z" fill="#C4C4C4"/>
<g filter="url(#filter4_i)">
<path d="M151.688 196.052C157.961 191.744 169.606 189.218 173.664 190.253C173.905 193.912 173.311 200.706 170.775 202.368C165.72 205.682 154.989 205.06 152.719 204.439C150.904 203.942 154.645 199.158 155.712 197.812C151.688 199.158 147.767 203.956 147.561 203.714C146.976 203.058 145.415 200.359 151.688 196.052Z" fill="#FFC2A0"/>
</g>
<path d="M156.422 203.648C157.832 201.923 159.859 200.069 161.593 199.158" stroke="#E17C6E" stroke-width="4" stroke-linecap="round"/>
<path d="M176.115 197.971C175.206 197.062 176.427 192.545 177.185 190.4L179.078 188.507L180.593 196.835C180.467 197.844 179.977 199.409 178.766 199.106C177.251 198.728 177.251 199.106 176.115 197.971Z" fill="#5E1212"/>
<defs>
<filter id="filter0_i" x="127.768" y="193.995" width="17.9149" height="20.8631" filterUnits="userSpaceOnUse" color-interpolation-filters="sRGB">
<feFlood flood-opacity="0" result="BackgroundImageFix"/>
<feBlend mode="normal" in="SourceGraphic" in2="BackgroundImageFix" result="shape"/>
<feColorMatrix in="SourceAlpha" type="matrix" values="0 0 0 0 0 0 0 0 0 0 0 0 0 0 0 0 0 0 127 0" result="hardAlpha"/>
<feOffset dy="9"/>
<feGaussianBlur stdDeviation="5"/>
<feComposite in2="hardAlpha" operator="arithmetic" k2="-1" k3="1"/>
<feColorMatrix type="matrix" values="0 0 0 0 0.956863 0 0 0 0 0.54902 0 0 0 0 0.419608 0 0 0 0.5 0"/>
<feBlend mode="normal" in2="shape" result="effect1_innerShadow"/>
</filter>
<filter id="filter1_i" x="68.9207" y="204.616" width="97.6032" height="8.14191" filterUnits="userSpaceOnUse" color-interpolation-filters="sRGB">
<feFlood flood-opacity="0" result="BackgroundImageFix"/>
<feBlend mode="normal" in="SourceGraphic" in2="BackgroundImageFix" result="shape"/>
<feColorMatrix in="SourceAlpha" type="matrix" values="0 0 0 0 0 0 0 0 0 0 0 0 0 0 0 0 0 0 127 0" result="hardAlpha"/>
<feOffset dy="4"/>
<feGaussianBlur stdDeviation="5"/>
<feComposite in2="hardAlpha" operator="arithmetic" k2="-1" k3="1"/>
<feColorMatrix type="matrix" values="0 0 0 0 0 0 0 0 0 0 0 0 0 0 0 0 0 0 0.1 0"/>
<feBlend mode="normal" in2="shape" result="effect1_innerShadow"/>
</filter>
<filter id="filter2_i" x="45.9934" y="149.942" width="95.5622" height="63.2296" filterUnits="userSpaceOnUse" color-interpolation-filters="sRGB">
<feFlood flood-opacity="0" result="BackgroundImageFix"/>
<feBlend mode="normal" in="SourceGraphic" in2="BackgroundImageFix" result="shape"/>
<feColorMatrix in="SourceAlpha" type="matrix" values="0 0 0 0 0 0 0 0 0 0 0 0 0 0 0 0 0 0 127 0" result="hardAlpha"/>
<feOffset dy="4"/>
<feGaussianBlur stdDeviation="25"/>
<feComposite in2="hardAlpha" operator="arithmetic" k2="-1" k3="1"/>
<feColorMatrix type="matrix" values="0 0 0 0 0 0 0 0 0 0 0 0 0 0 0 0 0 0 0.05 0"/>
<feBlend mode="normal" in2="shape" result="effect1_innerShadow"/>
</filter>
<filter id="filter3_d" x="78.1904" y="176.45" width="14.6032" height="14.6271" filterUnits="userSpaceOnUse" color-interpolation-filters="sRGB">
<feFlood flood-opacity="0" result="BackgroundImageFix"/>
<feColorMatrix in="SourceAlpha" type="matrix" values="0 0 0 0 0 0 0 0 0 0 0 0 0 0 0 0 0 0 127 0"/>
<feOffset dx="-2" dy="4"/>
<feGaussianBlur stdDeviation="2"/>
<feColorMatrix type="matrix" values="0 0 0 0 0 0 0 0 0 0 0 0 0 0 0 0 0 0 0.04 0"/>
<feBlend mode="normal" in2="BackgroundImageFix" result="effect1_dropShadow"/>
<feBlend mode="normal" in="SourceGraphic" in2="effect1_dropShadow" result="shape"/>
</filter>
<filter id="filter4_i" x="146.954" y="190.021" width="31.7595" height="20.9114" filterUnits="userSpaceOnUse" color-interpolation-filters="sRGB">
<feFlood flood-opacity="0" result="BackgroundImageFix"/>
<feBlend mode="normal" in="SourceGraphic" in2="BackgroundImageFix" result="shape"/>
<feColorMatrix in="SourceAlpha" type="matrix" values="0 0 0 0 0 0 0 0 0 0 0 0 0 0 0 0 0 0 127 0" result="hardAlpha"/>
<feOffset dx="5" dy="6"/>
<feGaussianBlur stdDeviation="5"/>
<feComposite in2="hardAlpha" operator="arithmetic" k2="-1" k3="1"/>
<feColorMatrix type="matrix" values="0 0 0 0 0.956863 0 0 0 0 0.54902 0 0 0 0 0.419608 0 0 0 0.5 0"/>
<feBlend mode="normal" in2="shape" result="effect1_innerShadow"/>
</filter>
</defs>
</svg>
